<svg width="100" height="21" viewBox="0 0 100 21" fill="none" xmlns="http://www.w3.org/2000/svg">
<path d="M10.4915 12.4506H4.18542L2.67102 16.9397H0L5.97305 0.331421H8.74814L14.7212 16.9397H12.0046L10.4915 12.4506ZM4.83854 10.3792H9.83717L7.37301 3.09382H7.30405L4.83854 10.3792Z" fill="white"/>
<path d="M27.6209 10.886C27.6209 14.6488 25.6147 17.0664 22.5872 17.0664C21.8203 17.1067 21.0575 16.9293 20.3864 16.5546C19.7152 16.18 19.1627 15.6231 18.7921 14.9479H18.7348V20.9454H16.2589V4.83095H18.6555V6.84494H18.701C19.0886 6.17293 19.6505 5.61897 20.3268 5.24202C21.0031 4.86507 21.7685 4.67923 22.5416 4.70426C25.6029 4.70427 27.6209 7.13358 27.6209 10.886ZM25.076 10.886C25.076 8.43447 23.814 6.82274 21.8885 6.82274C19.9968 6.82274 18.7244 8.46841 18.7244 10.886C18.7244 13.3258 19.9968 14.9597 21.8885 14.9597C23.814 14.9597 25.076 13.3597 25.076 10.886Z" fill="white"/>
<path d="M40.8966 10.886C40.8966 14.6488 38.8904 17.0664 35.8629 17.0664C35.096 17.1066 34.3333 16.9293 33.6621 16.5546C32.9909 16.18 32.4384 15.6231 32.0678 14.9479H32.0105V20.9454H29.5347V4.83094H31.9312V6.84493H31.9767C32.3643 6.17291 32.9262 5.61897 33.6025 5.24202C34.2788 4.86507 35.0442 4.67923 35.8174 4.70426C38.8787 4.70426 40.8966 7.13357 40.8966 10.886ZM38.3518 10.886C38.3518 8.43445 37.0898 6.82273 35.1643 6.82273C33.2726 6.82273 32.0002 8.4684 32.0002 10.886C32.0002 13.3257 33.2726 14.9597 35.1643 14.9597C37.0898 14.9597 38.3518 13.3597 38.3518 10.886H38.3518Z" fill="white"/>
<path d="M49.6708 12.3123C49.8543 13.9592 51.448 15.0406 53.6259 15.0406C55.7128 15.0406 57.2142 13.9592 57.2142 12.4742C57.2142 11.185 56.3087 10.4132 54.1646 9.88419L52.0205 9.36566C48.9826 8.62903 47.5722 7.20278 47.5722 4.88839C47.5722 2.02284 50.0598 0.0545654 53.5921 0.0545654C57.088 0.0545654 59.4845 2.02284 59.5652 4.88839H57.0658C56.9162 3.23097 55.5514 2.23051 53.557 2.23051C51.5625 2.23051 50.1977 3.24274 50.1977 4.716C50.1977 5.89017 51.0694 6.58109 53.2018 7.11L55.0245 7.5593C58.4189 8.36516 59.8292 9.73397 59.8292 12.1633C59.8292 15.2704 57.3638 17.2165 53.4425 17.2165C49.7735 17.2165 47.2964 15.3161 47.1364 12.3121L49.6708 12.3123Z" fill="white"/>
<path d="M65.1725 1.96545V4.83101H67.4662V6.79928H65.1725V13.4747C65.1725 14.5117 65.6318 14.995 66.6401 14.995C66.9124 14.9902 67.1842 14.971 67.4545 14.9375V16.894C67.0012 16.979 66.5404 17.0175 66.0793 17.0089C63.6373 17.0089 62.6849 16.0881 62.6849 13.7398V6.79928H60.9312V4.83101H62.6849V1.96545H65.1725Z" fill="white"/>
<path d="M68.7947 10.8859C68.7947 7.07607 71.0298 4.68201 74.5153 4.68201C78.0125 4.68201 80.2373 7.07601 80.2373 10.8859C80.2373 14.7062 78.0242 17.0898 74.5153 17.0898C71.0077 17.0898 68.7947 14.7062 68.7947 10.8859ZM77.7145 10.8859C77.7145 8.27244 76.5215 6.72995 74.5153 6.72995C72.5091 6.72995 71.3174 8.28419 71.3174 10.8859C71.3174 13.5098 72.5091 15.0406 74.5153 15.0406C76.5215 15.0406 77.7145 13.5098 77.7145 10.8859H77.7145Z" fill="white"/>
<path d="M82.2786 4.83096H84.6399V6.89195H84.6972C84.857 6.24826 85.2326 5.67941 85.761 5.281C86.2893 4.8826 86.9382 4.67894 87.5985 4.70425C87.8839 4.70325 88.1684 4.73436 88.4468 4.79699V7.12182C88.0866 7.01133 87.7109 6.9606 87.3344 6.97163C86.9747 6.95698 86.6161 7.02065 86.2833 7.15825C85.9504 7.29585 85.6512 7.50414 85.4061 7.7688C85.161 8.03347 84.9758 8.34825 84.8633 8.69152C84.7509 9.0348 84.7137 9.39845 84.7544 9.7575V16.9397H82.2786L82.2786 4.83096Z" fill="white"/>
<path d="M99.862 13.3832C99.5289 15.5813 97.3965 17.0898 94.6683 17.0898C91.1594 17.0898 88.9814 14.7297 88.9814 10.9434C88.9814 7.14529 91.1711 4.68201 94.5642 4.68201C97.9013 4.68201 99.9999 6.98333 99.9999 10.6547V11.5063H91.4807V11.6565C91.4414 12.1021 91.497 12.5511 91.6438 12.9735C91.7906 13.3959 92.0252 13.7821 92.3321 14.1065C92.639 14.4309 93.0111 14.686 93.4238 14.855C93.8364 15.0239 94.2802 15.1027 94.7255 15.0863C95.3106 15.1413 95.8977 15.0053 96.3996 14.6984C96.9015 14.3916 97.2913 13.9303 97.511 13.3831L99.862 13.3832ZM91.4924 9.76921H97.5227C97.545 9.36852 97.4844 8.96755 97.345 8.59145C97.2055 8.21535 96.9901 7.87225 96.7123 7.58368C96.4345 7.2951 96.1003 7.06729 95.7306 6.91453C95.361 6.76178 94.9638 6.68737 94.5642 6.69599C94.161 6.69358 93.7613 6.77134 93.3882 6.9248C93.0151 7.07826 92.676 7.30438 92.3904 7.5901C92.1049 7.87582 91.8785 8.21549 91.7243 8.5895C91.5702 8.96352 91.4914 9.36447 91.4924 9.76923V9.76921Z" fill="white"/>
</svg>
