<svg width="100" height="21" viewBox="0 0 100 21" fill="none" xmlns="http://www.w3.org/2000/svg">
<path d="M77.7271 15.7129H79.9282V1.03086H77.7271V15.7129ZM97.5523 6.31948L95.0291 12.6851H94.9536L92.335 6.31948H89.964L93.8909 15.2161L91.6532 20.1653H93.9475L99.9999 6.31948H97.5523ZM85.07 14.0451C84.3481 14.0451 83.343 13.6869 83.343 12.7978C83.343 11.6657 84.5946 11.2311 85.6763 11.2311C86.6435 11.2311 87.1 11.439 87.6874 11.722C87.5164 13.0821 86.3404 14.0451 85.07 14.0451ZM85.3354 5.99885C83.7418 5.99885 82.0903 6.69766 81.4085 8.24678L83.3619 9.05834C83.7795 8.24678 84.5568 7.98135 85.3731 7.98135C86.5114 7.98135 87.6686 8.66137 87.6874 9.87107V10.0214C87.2887 9.79473 86.4359 9.45531 85.392 9.45531C83.2864 9.45531 81.142 10.6075 81.142 12.7603C81.142 14.7251 82.8689 15.9912 84.8034 15.9912C86.2837 15.9912 87.1 15.33 87.612 14.5548H87.6874V15.6882H89.8119V10.059C89.8119 7.45285 87.8585 5.99885 85.3354 5.99885ZM71.7324 8.10702H68.6018V3.07443H71.7324C73.378 3.07443 74.3122 4.43094 74.3122 5.59014C74.3122 6.7282 73.378 8.10702 71.7324 8.10702ZM71.6758 1.03086H66.4019V15.7129H68.6018V10.1506H71.6758C74.1152 10.1506 76.5133 8.39124 76.5133 5.59014C76.5133 2.78904 74.1152 1.03086 71.6758 1.03086ZM42.9165 14.0475C41.396 14.0475 40.1233 12.7802 40.1233 11.0397C40.1233 9.28032 41.396 7.9931 42.9165 7.9931C44.4181 7.9931 45.5953 9.28032 45.5953 11.0397C45.5953 12.7802 44.4181 14.0475 42.9165 14.0475ZM45.4444 7.14161H45.3677C44.8734 6.55555 43.9239 6.02587 42.7266 6.02587C40.2176 6.02587 37.9186 8.21977 37.9186 11.0397C37.9186 13.8396 40.2176 16.0159 42.7266 16.0159C43.9239 16.0159 44.8734 15.4862 45.3677 14.8802H45.4444V15.6001C45.4444 17.511 44.4181 18.5328 42.7643 18.5328C41.4149 18.5328 40.5786 17.5674 40.2365 16.7534L38.3173 17.5486C38.8682 18.8734 40.3321 20.5 42.7643 20.5C45.3488 20.5 47.5346 18.9861 47.5346 15.2971V6.32771H45.4444V7.14161ZM49.055 15.7129H51.2597V1.02969H49.055V15.7129ZM54.5082 10.8694C54.4516 8.93972 56.0098 7.95552 57.1304 7.95552C58.0057 7.95552 58.7465 8.39007 58.993 9.01489L54.5082 10.8694ZM61.3498 9.20398C60.9322 8.08823 59.6583 6.02587 57.055 6.02587C54.4705 6.02587 52.3237 8.04947 52.3237 11.0209C52.3237 13.8208 54.4516 16.0159 57.3015 16.0159C59.6017 16.0159 60.9322 14.6159 61.4831 13.802L59.7727 12.6663C59.203 13.499 58.4233 14.0475 57.3015 14.0475C56.1809 14.0475 55.3823 13.5366 54.8692 12.5348L61.5775 9.77124L61.3498 9.20398ZM7.90542 7.55855V9.67729H12.9977C12.8455 10.8694 12.4468 11.7396 11.8393 12.3445C11.0974 13.0832 9.93783 13.8971 7.90542 13.8971C4.76892 13.8971 2.31775 11.3803 2.31775 8.25853C2.31775 5.13562 4.76892 2.61991 7.90542 2.61991C9.59693 2.61991 10.832 3.28231 11.7438 4.1338L13.2454 2.6387C11.9714 1.42783 10.2811 0.5 7.90542 0.5C3.61057 0.5 -0.00012207 3.98229 -0.00012207 8.25853C-0.00012207 12.5348 3.61057 16.0159 7.90542 16.0159C10.2233 16.0159 11.9714 15.2584 13.3397 13.8396C14.747 12.4396 15.1834 10.4724 15.1834 8.88217C15.1834 8.39007 15.1457 7.93672 15.069 7.55855H7.90542ZM20.974 14.0475C19.4535 14.0475 18.1418 12.799 18.1418 11.0209C18.1418 9.22277 19.4535 7.9931 20.974 7.9931C22.4933 7.9931 23.805 9.22277 23.805 11.0209C23.805 12.799 22.4933 14.0475 20.974 14.0475ZM20.974 6.02587C18.1984 6.02587 15.9372 8.12581 15.9372 11.0209C15.9372 13.8971 18.1984 16.0159 20.974 16.0159C23.7483 16.0159 26.0096 13.8971 26.0096 11.0209C26.0096 8.12581 23.7483 6.02587 20.974 6.02587ZM31.9594 14.0475C30.4389 14.0475 29.1272 12.799 29.1272 11.0209C29.1272 9.22277 30.4389 7.9931 31.9594 7.9931C33.4799 7.9931 34.7904 9.22277 34.7904 11.0209C34.7904 12.799 33.4799 14.0475 31.9594 14.0475ZM31.9594 6.02587C29.185 6.02587 26.9238 8.12581 26.9238 11.0209C26.9238 13.8971 29.185 16.0159 31.9594 16.0159C34.7338 16.0159 36.995 13.8971 36.995 11.0209C36.995 8.12581 34.7338 6.02587 31.9594 6.02587Z" fill="white"/>
</svg>
