<svg width="163" height="40" viewBox="0 0 163 40" fill="none" xmlns="http://www.w3.org/2000/svg">
<g clip-path="url(#clip0_384_1468)">
<path d="M37.8612 11.9268L41.7183 5.24923C43.0669 2.91463 41.3848 0 38.6877 0H8.35962C3.74116 0 0 3.74116 0 8.35962V22.4615C0 24.1798 1.24705 25.6516 2.94363 25.9199C9.91118 27.0074 15.6244 31.8869 17.901 38.3832C18.5898 40.348 21.2869 40.5873 22.331 38.7819L31.8289 22.3817C33.1775 20.0471 31.4954 17.1252 28.7983 17.1252H18.9306C17.9808 17.1252 17.2123 16.3567 17.2123 15.4069C17.2123 14.4571 17.9808 13.6886 18.9306 13.6886H34.8305C36.0776 13.6813 37.2376 13.0143 37.8612 11.9268Z" fill="white"/>
<path d="M80.7975 35.367L79.7607 35.0408C79.5505 34.9755 79.3982 34.8813 79.2967 34.7653C79.1952 34.6493 79.1444 34.5115 79.1444 34.352C79.1444 34.2142 79.1807 34.091 79.2532 33.9895C79.3257 33.8807 79.4272 33.801 79.5577 33.743C79.6882 33.685 79.8405 33.656 80.0145 33.656C80.3045 33.656 80.5583 33.7357 80.783 33.888C81.0078 34.0475 81.1745 34.265 81.276 34.5405L82.1316 34.1635C82.0301 33.8807 81.8778 33.6342 81.6748 33.424C81.4718 33.2137 81.2253 33.0469 80.9425 32.9309C80.6598 32.8149 80.348 32.7497 80.0072 32.7497C79.6375 32.7497 79.3112 32.8222 79.0284 32.9599C78.7457 33.0977 78.5209 33.2935 78.3542 33.54C78.1947 33.7865 78.1149 34.0765 78.1149 34.3955C78.1149 34.7725 78.2237 35.0915 78.4557 35.3598C78.6804 35.6281 79.0139 35.8311 79.449 35.9688L80.5293 36.3168C80.725 36.3821 80.8773 36.4691 80.9715 36.5778C81.073 36.6866 81.1165 36.8171 81.1165 36.9839C81.1165 37.1289 81.0803 37.2449 81.0078 37.3464C80.9353 37.4479 80.8338 37.5276 80.696 37.5856C80.5583 37.6436 80.406 37.6726 80.2247 37.6726C79.8985 37.6726 79.6085 37.5784 79.3547 37.3971C79.0937 37.2159 78.8979 36.9621 78.7602 36.6359L77.8974 37.0056C78.0062 37.3174 78.1657 37.5929 78.3832 37.8249C78.6007 38.0569 78.8689 38.2454 79.1735 38.3759C79.478 38.5064 79.8115 38.5717 80.1595 38.5717C80.551 38.5717 80.899 38.4992 81.189 38.3614C81.4791 38.2237 81.7111 38.0279 81.8778 37.7814C82.0446 37.5349 82.1243 37.2449 82.1243 36.9259C82.1243 36.5488 82.0156 36.2298 81.7908 35.9688C81.5878 35.7151 81.247 35.5121 80.7975 35.367Z" fill="white"/>
<path d="M85.5682 36.7809C85.5682 36.9621 85.532 37.1216 85.4595 37.2521C85.387 37.3826 85.2927 37.4841 85.1622 37.5566C85.039 37.6291 84.894 37.6654 84.7272 37.6654C84.5677 37.6654 84.4227 37.6291 84.2922 37.5566C84.1617 37.4841 84.0674 37.3826 83.9949 37.2521C83.9297 37.1216 83.8934 36.9766 83.8934 36.8026V34.3665H82.8929V36.8896C82.8929 37.2304 82.9581 37.5204 83.0814 37.7741C83.2046 38.0279 83.3859 38.2237 83.6179 38.3687C83.8499 38.5137 84.1254 38.5789 84.4517 38.5789C84.7417 38.5789 85.0027 38.5137 85.2202 38.3904C85.387 38.2962 85.5175 38.1584 85.6118 37.9844V38.4919H86.5543V34.3665H85.561V36.7809H85.5682Z" fill="white"/>
<path d="M90.1432 34.4608C89.8822 34.3375 89.5849 34.2723 89.2514 34.2723C88.9759 34.2723 88.7149 34.3158 88.4756 34.41C88.2364 34.5043 88.0334 34.6275 87.8594 34.787C87.6853 34.9465 87.5548 35.135 87.4751 35.3525L88.2871 35.7441C88.3596 35.5628 88.4829 35.4105 88.6496 35.2945C88.8164 35.1785 89.0049 35.1205 89.2152 35.1205C89.4399 35.1205 89.6212 35.1785 89.7589 35.3018C89.8967 35.4178 89.9619 35.5701 89.9619 35.7441V35.8746L88.7439 36.0776C88.4176 36.1283 88.1494 36.2153 87.9391 36.3386C87.7288 36.4618 87.5693 36.6069 87.4678 36.7881C87.3663 36.9694 87.3156 37.1724 87.3156 37.3971C87.3156 37.6364 87.3736 37.8467 87.4896 38.0207C87.6056 38.2019 87.7723 38.3397 87.9826 38.4339C88.2001 38.5282 88.4466 38.5789 88.7366 38.5789C88.9614 38.5789 89.1717 38.5499 89.3529 38.4847C89.5342 38.4267 89.7009 38.3324 89.8532 38.2092C89.9112 38.1584 89.9692 38.1004 90.0272 38.0424V38.4774H90.9697V35.7441C90.9697 35.4541 90.8972 35.2003 90.7522 34.9755C90.6 34.758 90.397 34.584 90.1432 34.4608ZM89.8314 37.3174C89.7444 37.4769 89.6212 37.6001 89.4617 37.6871C89.3022 37.7742 89.1209 37.8177 88.9107 37.8177C88.7511 37.8177 88.6134 37.7742 88.5046 37.6944C88.3959 37.6146 88.3451 37.4986 88.3451 37.3536C88.3451 37.2086 88.3959 37.0926 88.4901 36.9984C88.5844 36.9114 88.7294 36.8461 88.9324 36.8099L89.9619 36.6286V36.8026C89.9619 36.9911 89.9184 37.1651 89.8314 37.3174Z" fill="white"/>
<path d="M98.6478 34.468C98.4158 34.3375 98.1548 34.2723 97.8648 34.2723C97.5385 34.2723 97.2485 34.352 96.9947 34.5188C96.828 34.6275 96.6975 34.7725 96.5815 34.9465C96.4945 34.787 96.3712 34.6493 96.2045 34.5405C95.9434 34.3665 95.6462 34.2723 95.3127 34.2723C95.0081 34.2723 94.7399 34.3448 94.5079 34.4898C94.3556 34.584 94.2469 34.7218 94.1599 34.8885V34.3665H93.2173V38.4919H94.2179V36.0776C94.2179 35.8963 94.2541 35.7368 94.3194 35.6063C94.3846 35.4758 94.4789 35.3743 94.6021 35.3018C94.7254 35.2293 94.8631 35.193 95.0154 35.193C95.1749 35.193 95.3199 35.2293 95.4359 35.3018C95.5519 35.3743 95.6462 35.4758 95.7114 35.6063C95.7767 35.7368 95.8129 35.8963 95.8129 36.0776V38.4919H96.8062V36.0776C96.8062 35.8963 96.8425 35.7368 96.9077 35.6063C96.973 35.4758 97.0672 35.3743 97.1905 35.3018C97.3137 35.2293 97.4515 35.193 97.6038 35.193C97.7633 35.193 97.9083 35.2293 98.0243 35.3018C98.1403 35.3743 98.2345 35.4758 98.2998 35.6063C98.365 35.7368 98.4013 35.8963 98.4013 36.0776V38.4919H99.3946V35.8383C99.3946 35.5338 99.3293 35.2583 99.1988 35.0263C99.0611 34.787 98.8798 34.5985 98.6478 34.468Z" fill="white"/>
<path d="M103.585 34.874C103.411 34.6855 103.208 34.5405 102.962 34.4318C102.715 34.323 102.432 34.2723 102.106 34.2723C101.715 34.2723 101.367 34.3665 101.062 34.555C100.75 34.7435 100.511 34.9973 100.33 35.3163C100.149 35.6353 100.054 36.0051 100.054 36.4183C100.054 36.8171 100.141 37.1796 100.323 37.5059C100.497 37.8322 100.75 38.0932 101.069 38.2889C101.388 38.4774 101.765 38.5789 102.186 38.5789C102.461 38.5789 102.722 38.5354 102.962 38.4484C103.201 38.3614 103.404 38.2454 103.578 38.0932C103.752 37.9409 103.875 37.7669 103.955 37.5711L103.15 37.1796C103.056 37.3391 102.933 37.4696 102.773 37.5639C102.614 37.6581 102.418 37.7089 102.193 37.7089C101.968 37.7089 101.765 37.6581 101.591 37.5494C101.417 37.4406 101.287 37.2956 101.2 37.0999C101.149 36.9839 101.113 36.8534 101.098 36.7156H104.064C104.086 36.6576 104.1 36.5851 104.107 36.5126C104.115 36.4401 104.122 36.3676 104.122 36.2878C104.122 36.0123 104.078 35.7513 103.984 35.5121C103.89 35.2728 103.759 35.0625 103.585 34.874ZM101.555 35.251C101.715 35.1423 101.903 35.0915 102.106 35.0915C102.324 35.0915 102.512 35.1423 102.664 35.251C102.817 35.3598 102.933 35.4976 102.998 35.6861C103.027 35.7658 103.049 35.8601 103.056 35.9543H101.12C101.135 35.8673 101.156 35.7876 101.193 35.7151C101.272 35.5121 101.396 35.3598 101.555 35.251Z" fill="white"/>
<path d="M105.862 32.7497H104.861V38.4847H105.862V32.7497Z" fill="white"/>
<path d="M109.683 34.468C109.451 34.3375 109.175 34.2723 108.878 34.2723C108.588 34.2723 108.327 34.3375 108.109 34.468C107.972 34.5478 107.863 34.6565 107.776 34.7798V32.7497H106.775V38.4847H107.776V36.0703C107.776 35.8891 107.812 35.7296 107.885 35.5991C107.957 35.4686 108.051 35.367 108.182 35.2945C108.305 35.222 108.45 35.1858 108.617 35.1858C108.784 35.1858 108.929 35.222 109.052 35.2945C109.175 35.367 109.27 35.4686 109.342 35.5991C109.415 35.7296 109.451 35.8891 109.451 36.0703V38.4847H110.444V35.8311C110.444 35.5266 110.379 35.251 110.248 35.019C110.103 34.787 109.915 34.5985 109.683 34.468Z" fill="white"/>
<path d="M114.381 34.555C114.055 34.3665 113.685 34.2723 113.272 34.2723C112.866 34.2723 112.503 34.3665 112.17 34.555C111.843 34.7435 111.575 34.9973 111.379 35.3235C111.184 35.6498 111.082 36.0123 111.082 36.4328C111.082 36.8461 111.184 37.2159 111.379 37.5421C111.575 37.8684 111.843 38.1222 112.17 38.3107C112.503 38.4992 112.866 38.5934 113.264 38.5934C113.67 38.5934 114.033 38.4992 114.366 38.3107C114.693 38.1222 114.961 37.8684 115.157 37.5421C115.353 37.2159 115.454 36.8534 115.454 36.4328C115.454 36.0123 115.36 35.6426 115.164 35.3235C114.976 34.9973 114.714 34.7435 114.381 34.555ZM114.272 37.0636C114.171 37.2521 114.04 37.3971 113.873 37.5059C113.707 37.6146 113.504 37.6654 113.279 37.6654C113.054 37.6654 112.858 37.6146 112.684 37.5059C112.51 37.3971 112.38 37.2521 112.278 37.0636C112.177 36.8751 112.133 36.6576 112.133 36.4256C112.133 36.1936 112.184 35.9761 112.278 35.7876C112.38 35.5991 112.51 35.4541 112.684 35.3453C112.858 35.2365 113.054 35.1858 113.279 35.1858C113.504 35.1858 113.707 35.2365 113.873 35.3453C114.04 35.4541 114.178 35.5991 114.272 35.7876C114.374 35.9761 114.417 36.1863 114.417 36.4256C114.417 36.6649 114.374 36.8751 114.272 37.0636Z" fill="white"/>
<path d="M117.52 34.5043C117.361 34.5985 117.238 34.7508 117.143 34.9538V34.3738H116.201V38.4992H117.201V36.2008C117.201 35.8891 117.288 35.6426 117.462 35.4758C117.636 35.3018 117.861 35.2148 118.144 35.2148H118.499V34.3303H118.26C117.97 34.3158 117.723 34.381 117.52 34.5043Z" fill="white"/>
<path d="M123.748 34.874C123.574 34.6855 123.371 34.5405 123.125 34.4318C122.878 34.323 122.596 34.2723 122.269 34.2723C121.878 34.2723 121.53 34.3665 121.225 34.555C120.914 34.7435 120.674 34.9973 120.493 35.3163C120.312 35.6353 120.217 36.0051 120.217 36.4183C120.217 36.8171 120.305 37.1796 120.486 37.5059C120.66 37.8322 120.914 38.0932 121.233 38.2889C121.552 38.4774 121.929 38.5789 122.349 38.5789C122.625 38.5789 122.886 38.5354 123.125 38.4484C123.364 38.3614 123.567 38.2454 123.741 38.0932C123.915 37.9409 124.038 37.7669 124.118 37.5711L123.313 37.1796C123.219 37.3391 123.096 37.4696 122.936 37.5639C122.777 37.6581 122.581 37.7089 122.356 37.7089C122.132 37.7089 121.929 37.6581 121.755 37.5494C121.581 37.4406 121.45 37.2956 121.363 37.0999C121.312 36.9839 121.276 36.8534 121.262 36.7156H124.227C124.249 36.6576 124.263 36.5851 124.27 36.5126C124.278 36.4401 124.285 36.3676 124.285 36.2878C124.285 36.0123 124.241 35.7513 124.147 35.5121C124.053 35.2728 123.922 35.0625 123.748 34.874ZM121.718 35.251C121.878 35.1423 122.066 35.0915 122.269 35.0915C122.487 35.0915 122.675 35.1423 122.828 35.251C122.98 35.3598 123.096 35.4976 123.161 35.6861C123.19 35.7658 123.212 35.8601 123.219 35.9543H121.283C121.298 35.8673 121.32 35.7876 121.356 35.7151C121.436 35.5121 121.559 35.3598 121.718 35.251Z" fill="white"/>
<path d="M127.482 34.3665L126.612 35.6426L125.742 34.3665H124.575L126.025 36.4183L124.582 38.4847H125.75L126.612 37.2086L127.468 38.4847H128.628L127.2 36.4183L128.635 34.3665H127.482Z" fill="white"/>
<path d="M132.492 34.5623C132.181 34.3738 131.825 34.2723 131.441 34.2723C131.122 34.2723 130.839 34.3375 130.6 34.4608C130.404 34.5623 130.245 34.6928 130.114 34.8523V34.3665H129.172V40.0072H130.172V38.0932C130.295 38.2237 130.44 38.3324 130.607 38.4122C130.854 38.5282 131.129 38.5862 131.426 38.5862C131.825 38.5862 132.181 38.4919 132.492 38.3034C132.804 38.1149 133.051 37.8539 133.232 37.5276C133.413 37.2014 133.507 36.8389 133.507 36.4401C133.507 36.0341 133.413 35.6716 133.232 35.3453C133.058 35.0118 132.811 34.7508 132.492 34.5623ZM132.333 37.0709C132.231 37.2594 132.094 37.4044 131.92 37.5131C131.745 37.6219 131.542 37.6726 131.318 37.6726C131.1 37.6726 130.904 37.6219 130.73 37.5131C130.556 37.4044 130.419 37.2594 130.324 37.0709C130.223 36.8824 130.179 36.6721 130.179 36.4256C130.179 36.1863 130.23 35.9761 130.324 35.7876C130.426 35.5991 130.556 35.4541 130.73 35.3453C130.904 35.2365 131.1 35.1858 131.318 35.1858C131.542 35.1858 131.745 35.2365 131.92 35.3453C132.094 35.4541 132.231 35.5991 132.333 35.7876C132.434 35.9761 132.485 36.1863 132.485 36.4256C132.485 36.6649 132.434 36.8824 132.333 37.0709Z" fill="white"/>
<path d="M137.633 34.874C137.459 34.6855 137.256 34.5405 137.009 34.4318C136.763 34.323 136.48 34.2723 136.154 34.2723C135.762 34.2723 135.414 34.3665 135.11 34.555C134.798 34.7435 134.559 34.9973 134.377 35.3163C134.196 35.6353 134.102 36.0051 134.102 36.4183C134.102 36.8171 134.189 37.1796 134.37 37.5059C134.544 37.8322 134.798 38.0932 135.117 38.2889C135.436 38.4774 135.813 38.5789 136.233 38.5789C136.509 38.5789 136.77 38.5354 137.009 38.4484C137.249 38.3614 137.452 38.2454 137.626 38.0932C137.8 37.9409 137.923 37.7669 138.003 37.5711L137.198 37.1796C137.104 37.3391 136.98 37.4696 136.821 37.5639C136.661 37.6581 136.465 37.7089 136.241 37.7089C136.016 37.7089 135.813 37.6581 135.639 37.5494C135.465 37.4406 135.334 37.2956 135.247 37.0999C135.197 36.9839 135.16 36.8534 135.146 36.7156H138.111C138.133 36.6576 138.148 36.5851 138.155 36.5126C138.162 36.4401 138.169 36.3676 138.169 36.2878C138.169 36.0123 138.126 35.7513 138.032 35.5121C137.937 35.2728 137.807 35.0625 137.633 34.874ZM135.603 35.251C135.762 35.1423 135.951 35.0915 136.154 35.0915C136.371 35.0915 136.56 35.1423 136.712 35.251C136.864 35.3598 136.98 35.4976 137.045 35.6861C137.074 35.7658 137.096 35.8601 137.104 35.9543H135.168C135.182 35.8673 135.204 35.7876 135.24 35.7151C135.32 35.5121 135.443 35.3598 135.603 35.251Z" fill="white"/>
<path d="M140.221 34.5043C140.062 34.5985 139.938 34.7508 139.844 34.9538V34.3738H138.902V38.4992H139.902V36.2008C139.902 35.8891 139.989 35.6426 140.163 35.4758C140.337 35.3018 140.562 35.2148 140.845 35.2148H141.2V34.3303H140.961C140.671 34.3158 140.424 34.381 140.221 34.5043Z" fill="white"/>
<path d="M142.744 32.8439H141.744V33.9025H142.744V32.8439Z" fill="white"/>
<path d="M142.744 34.3665H141.744V38.4919H142.744V34.3665Z" fill="white"/>
<path d="M145.521 32.9527L146.014 33.6342H147L146.108 32.3872H144.934L144.042 33.6342H145.028L145.521 32.9527Z" fill="white"/>
<path d="M147.015 34.874C146.841 34.6855 146.638 34.5405 146.391 34.4318C146.145 34.323 145.862 34.2723 145.536 34.2723C145.144 34.2723 144.796 34.3665 144.492 34.555C144.18 34.7435 143.941 34.9973 143.759 35.3163C143.578 35.6353 143.484 36.0051 143.484 36.4183C143.484 36.8171 143.571 37.1796 143.752 37.5059C143.926 37.8322 144.18 38.0932 144.499 38.2889C144.818 38.4774 145.195 38.5789 145.615 38.5789C145.891 38.5789 146.152 38.5354 146.391 38.4484C146.63 38.3614 146.833 38.2454 147.007 38.0932C147.181 37.9409 147.305 37.7669 147.384 37.5711L146.58 37.1796C146.485 37.3391 146.362 37.4696 146.203 37.5639C146.043 37.6581 145.847 37.7089 145.623 37.7089C145.398 37.7089 145.195 37.6581 145.021 37.5494C144.847 37.4406 144.716 37.2956 144.629 37.0999C144.579 36.9839 144.542 36.8534 144.528 36.7156H147.493C147.515 36.6576 147.529 36.5851 147.537 36.5126C147.544 36.4401 147.551 36.3676 147.551 36.2878C147.551 36.0123 147.508 35.7513 147.413 35.5121C147.319 35.2728 147.189 35.0625 147.015 34.874ZM144.985 35.251C145.144 35.1423 145.333 35.0915 145.536 35.0915C145.753 35.0915 145.942 35.1423 146.094 35.251C146.246 35.3598 146.362 35.4976 146.427 35.6861C146.456 35.7658 146.478 35.8601 146.485 35.9543H144.55C144.564 35.8673 144.586 35.7876 144.622 35.7151C144.702 35.5121 144.825 35.3598 144.985 35.251Z" fill="white"/>
<path d="M151.198 34.468C150.966 34.3375 150.691 34.2723 150.393 34.2723C150.103 34.2723 149.842 34.3375 149.625 34.468C149.458 34.5695 149.32 34.7073 149.226 34.874V34.3665H148.283V38.4919H149.284V36.0776C149.284 35.8963 149.32 35.7368 149.393 35.6063C149.465 35.4758 149.56 35.3743 149.69 35.3018C149.813 35.2293 149.958 35.193 150.125 35.193C150.285 35.193 150.43 35.2293 150.56 35.3018C150.683 35.3743 150.785 35.4758 150.857 35.6063C150.93 35.7368 150.966 35.8963 150.966 36.0776V38.4919H151.959V35.8383C151.959 35.5338 151.894 35.2583 151.764 35.0263C151.619 34.787 151.437 34.5985 151.198 34.468Z" fill="white"/>
<path d="M154.193 35.3453C154.359 35.2438 154.555 35.193 154.773 35.193C155.005 35.193 155.208 35.2583 155.389 35.3815C155.57 35.5048 155.693 35.6716 155.773 35.8891L156.643 35.5048C156.563 35.2655 156.433 35.048 156.244 34.8668C156.063 34.6855 155.838 34.5405 155.592 34.439C155.338 34.3375 155.063 34.2867 154.773 34.2867C154.359 34.2867 153.989 34.381 153.663 34.5695C153.337 34.758 153.083 35.0118 152.895 35.338C152.706 35.6643 152.612 36.0268 152.612 36.4401C152.612 36.8461 152.706 37.2159 152.895 37.5421C153.083 37.8684 153.337 38.1222 153.663 38.3179C153.989 38.5064 154.352 38.6007 154.773 38.6007C155.07 38.6007 155.345 38.5499 155.599 38.4484C155.853 38.3469 156.07 38.2019 156.252 38.0134C156.433 37.8322 156.563 37.6219 156.643 37.3899L155.773 36.9984C155.693 37.2086 155.563 37.3826 155.389 37.5059C155.215 37.6291 155.012 37.6944 154.773 37.6944C154.555 37.6944 154.359 37.6436 154.193 37.5349C154.026 37.4261 153.888 37.2811 153.794 37.0926C153.699 36.9041 153.649 36.6939 153.649 36.4473C153.649 36.2081 153.699 35.9978 153.794 35.8093C153.895 35.5991 154.026 35.4468 154.193 35.3453Z" fill="white"/>
<path d="M158.39 34.3665H157.39V38.4919H158.39V34.3665Z" fill="white"/>
<path d="M158.39 32.8439H157.39V33.9025H158.39V32.8439Z" fill="white"/>
<path d="M162.567 34.9755C162.422 34.7508 162.219 34.5768 161.965 34.4535C161.704 34.3303 161.407 34.265 161.073 34.265C160.798 34.265 160.537 34.3085 160.297 34.4028C160.058 34.497 159.855 34.6203 159.681 34.7798C159.507 34.9393 159.376 35.1278 159.297 35.3453L160.109 35.7368C160.181 35.5556 160.305 35.4033 160.471 35.2873C160.638 35.1713 160.827 35.1133 161.037 35.1133C161.262 35.1133 161.443 35.1713 161.581 35.2945C161.718 35.4105 161.784 35.5628 161.784 35.7368V35.8673L160.566 36.0703C160.239 36.1211 159.971 36.2081 159.761 36.3313C159.55 36.4546 159.391 36.5996 159.289 36.7809C159.188 36.9621 159.137 37.1651 159.137 37.3899C159.137 37.6291 159.195 37.8394 159.311 38.0134C159.427 38.1947 159.594 38.3324 159.804 38.4267C160.022 38.5209 160.268 38.5717 160.558 38.5717C160.783 38.5717 160.993 38.5427 161.175 38.4774C161.356 38.4194 161.523 38.3252 161.675 38.2019C161.733 38.1512 161.791 38.0932 161.849 38.0352V38.4702H162.791V35.7441C162.784 35.4541 162.712 35.2003 162.567 34.9755ZM161.653 37.3174C161.566 37.4769 161.443 37.6001 161.283 37.6871C161.124 37.7742 160.943 37.8177 160.732 37.8177C160.573 37.8177 160.435 37.7742 160.326 37.6944C160.218 37.6146 160.167 37.4986 160.167 37.3536C160.167 37.2086 160.218 37.0926 160.312 36.9984C160.406 36.9114 160.551 36.8461 160.754 36.8099L161.784 36.6286V36.8026C161.784 36.9911 161.74 37.1651 161.653 37.3174Z" fill="white"/>
<path d="M57.495 3.11039H54.8269C51.5643 3.11039 48.9252 5.7495 48.9252 9.01214V9.83143H46.8806C46.6341 9.83143 46.4383 10.0272 46.4383 10.2737V13.0723C46.4383 13.3188 46.6341 13.5146 46.8806 13.5146H48.9252V25.6226C48.9252 25.8909 49.1427 26.1084 49.4109 26.1084H52.7388C53.0071 26.1084 53.2246 25.8909 53.2246 25.6226V13.5146H57.5023C57.7488 13.5146 57.9445 13.3188 57.9445 13.0723V10.2737C57.9445 10.0272 57.7488 9.83143 57.5023 9.83143H53.2246V9.01214C53.2246 8.1276 53.9496 7.40982 54.8269 7.40982H57.495C57.7415 7.40982 57.9373 7.21406 57.9373 6.96755V3.55266C57.9445 3.30614 57.7415 3.11039 57.495 3.11039Z" fill="white"/>
<path d="M75.4251 9.83143H72.0102C71.7636 9.83143 71.5679 10.0272 71.5679 10.2737V11.1872C70.2556 9.87493 68.1892 9.32391 65.2746 9.96919C63.3025 10.4042 61.5769 11.6295 60.5619 13.3841C56.9077 19.7209 61.4609 26.3404 67.5585 26.3404C69.3058 26.3404 70.6253 25.7894 71.5679 24.8541V26.1011H75.8673V10.2737C75.8673 10.0272 75.6716 9.83143 75.4251 9.83143ZM71.5679 18.0388C71.5679 20.2356 69.7916 22.0482 67.5585 22.0482C64.5858 22.0482 62.3672 18.8363 64.1653 15.7767C64.4988 15.2112 64.9991 14.7471 65.5936 14.4644C68.646 13.0143 71.5606 15.1967 71.5606 18.0098V18.0388H71.5679Z" fill="white"/>
<path d="M105.485 10.4042C98.1765 7.27932 91.2017 14.2541 94.3266 21.5624C95.0806 23.317 96.4872 24.7308 98.249 25.4849C105.557 28.6098 112.525 21.6349 109.407 14.3266C108.653 12.5648 107.239 11.151 105.485 10.4042ZM105.383 19.9891C105.079 20.6127 104.571 21.1347 103.955 21.4537C100.185 23.3895 96.4219 19.6266 98.3578 15.8637C98.6768 15.2402 99.1916 14.7399 99.8224 14.4354C103.6 12.5866 107.218 16.2117 105.383 19.9891Z" fill="white"/>
<path d="M92.5213 9.83143H89.1209C88.8961 9.83143 88.6931 9.97644 88.6134 10.1867L85.4885 18.9016L82.3564 10.1867C82.2766 9.97644 82.0809 9.83143 81.8488 9.83143H78.4412C78.0714 9.83143 77.8104 10.2012 77.9337 10.5492L83.4149 25.7821C83.4874 25.9779 83.6687 26.1011 83.8717 26.1011H87.1126C87.3156 26.1011 87.5041 25.9706 87.5693 25.7821L93.0143 10.5492C93.1521 10.1939 92.8911 9.83143 92.5213 9.83143Z" fill="white"/>
<path d="M120.537 9.78793C117.76 9.78793 116.404 12.1153 116.404 12.1153V10.2737C116.404 10.0272 116.208 9.83143 115.962 9.83143H112.547C112.3 9.83143 112.104 10.0272 112.104 10.2737V25.6226C112.104 25.8909 112.322 26.1084 112.59 26.1084H115.918C116.186 26.1084 116.404 25.8909 116.404 25.6226V17.5385C116.404 15.8564 117.47 14.0801 119.282 14.0801C120.087 14.0801 120.863 14.1744 121.515 14.5949C121.842 14.8196 122.291 14.7906 122.581 14.5006L124.459 12.6301C124.814 12.2748 124.814 11.6948 124.43 11.3685C123.669 10.7232 122.313 9.78793 120.537 9.78793Z" fill="white"/>
<path d="M130.527 9.83143H127.149C126.902 9.83143 126.707 10.0272 126.707 10.2737V25.6226C126.707 25.8909 126.924 26.1084 127.192 26.1084H130.484C130.752 26.1084 130.97 25.8909 130.97 25.6226V10.2737C130.97 10.0272 130.774 9.83143 130.527 9.83143Z" fill="white"/>
<path d="M144.448 9.83143H140.17V5.93076C140.17 5.68425 139.975 5.48849 139.728 5.48849H136.313C136.067 5.48849 135.871 5.68425 135.871 5.93076V9.83143H133.826C133.58 9.83143 133.384 10.0272 133.384 10.2737V13.0723C133.384 13.3188 133.58 13.5146 133.826 13.5146H135.871V21.1057C135.871 23.868 138.111 26.1011 140.866 26.1011H144.441C144.687 26.1011 144.883 25.9054 144.883 25.6589V22.244C144.883 21.9975 144.687 21.8017 144.441 21.8017H141.649C140.845 21.8017 140.163 21.1564 140.163 20.3154V13.5073H144.441C144.687 13.5073 144.883 13.3116 144.883 13.0651V10.2664C144.89 10.0272 144.687 9.83143 144.448 9.83143Z" fill="white"/>
<path d="M162.016 14.3194C161.262 12.5648 159.855 11.151 158.093 10.397C150.785 7.27207 143.81 14.2469 146.935 21.5552C147.689 23.3098 149.096 24.7236 150.857 25.4776C158.173 28.6025 165.14 21.6349 162.016 14.3194ZM157.992 19.9891C157.687 20.6127 157.18 21.1347 156.563 21.4537C152.793 23.3895 149.03 19.6266 150.966 15.8637C151.285 15.2402 151.8 14.7399 152.431 14.4354C156.208 12.5865 159.833 16.2117 157.992 19.9891Z" fill="white"/>
<path d="M128.838 8.15661C130.14 8.15661 131.194 7.10163 131.194 5.80025C131.194 4.49888 130.14 3.4439 128.838 3.4439C127.537 3.4439 126.482 4.49888 126.482 5.80025C126.482 7.10163 127.537 8.15661 128.838 8.15661Z" fill="white"/>
</g>
<defs>
<clipPath id="clip0_384_1468">
<rect width="162.784" height="40" fill="white"/>
</clipPath>
</defs>
</svg>
