<svg width="163" height="40" viewBox="0 0 163 40" fill="none" xmlns="http://www.w3.org/2000/svg">
<path d="M37.855 11.9248L41.7116 5.24838C43.0599 2.91416 41.3781 0 38.6814 0H8.35826C3.74056 0 0 3.74056 0 8.35826V22.4578C0 24.1759 1.24685 25.6475 2.94315 25.9157C9.90958 27.0031 15.6219 31.8817 17.8981 38.377C18.5868 40.3415 21.2835 40.5807 22.3274 38.7757L31.8237 22.3781C33.1721 20.0439 31.4903 17.1225 28.7936 17.1225H18.9275C17.9779 17.1225 17.2095 16.3541 17.2095 15.4044C17.2095 14.4548 17.9779 13.6864 18.9275 13.6864H34.8249C36.0717 13.6791 37.2316 13.0122 37.855 11.9248Z" fill="url(#paint0_linear_1_1172)"/>
<path d="M57.4857 8.409H54.818C51.5559 8.409 48.9172 11.0477 48.9172 14.3098V15.129H46.873C46.6265 15.129 46.4308 15.3247 46.4308 15.5712V18.3693C46.4308 18.6158 46.6265 18.8115 46.873 18.8115H48.9172V30.9176C48.9172 31.1858 49.1347 31.4033 49.4029 31.4033H52.7303C52.9985 31.4033 53.216 31.1858 53.216 30.9176V18.8115H57.4929C57.7394 18.8115 57.9351 18.6158 57.9351 18.3693V15.5712C57.9351 15.3247 57.7394 15.129 57.4929 15.129H53.216V14.3098C53.216 13.4254 53.9409 12.7077 54.818 12.7077H57.4857C57.7322 12.7077 57.9279 12.512 57.9279 12.2655V8.85119C57.9351 8.60472 57.7322 8.409 57.4857 8.409Z" fill="#191A38"/>
<path d="M75.4128 15.129H71.9985C71.752 15.129 71.5563 15.3247 71.5563 15.5712V16.4845C70.2442 15.1725 68.1782 14.6215 65.264 15.2667C63.2922 15.7016 61.567 16.9267 60.5521 18.681C56.8985 25.0168 61.451 31.6353 67.5475 31.6353C69.2945 31.6353 70.6139 31.0843 71.5563 30.1492V31.396H75.855V15.5712C75.855 15.3247 75.6593 15.129 75.4128 15.129ZM71.5563 23.335C71.5563 25.5315 69.7802 27.3438 67.5475 27.3438C64.5753 27.3438 62.3571 24.1324 64.1549 21.0733C64.4884 20.5078 64.9885 20.0439 65.583 19.7612C68.6349 18.3113 71.549 20.4933 71.549 23.306V23.335H71.5563Z" fill="#191A38"/>
<path d="M105.468 15.7016C98.1606 12.5773 91.187 19.5509 94.3113 26.8581C95.0653 28.6124 96.4716 30.0259 98.2331 30.7799C105.54 33.9042 112.507 26.9306 109.39 19.6234C108.636 17.8619 107.222 16.4483 105.468 15.7016ZM105.366 25.285C105.062 25.9084 104.554 26.4304 103.938 26.7493C100.169 28.6849 96.4063 24.9226 98.3419 21.1602C98.6608 20.5368 99.1755 20.0366 99.8062 19.7322C103.583 17.8836 107.2 21.5082 105.366 25.285Z" fill="#191A38"/>
<path d="M92.5063 15.129H89.1065C88.8817 15.129 88.6788 15.2739 88.599 15.4842L85.4746 24.1976L82.343 15.4842C82.2633 15.2739 82.0675 15.129 81.8356 15.129H78.4285C78.0588 15.129 77.7978 15.4987 77.921 15.8466L83.4014 31.0771C83.4739 31.2728 83.6551 31.396 83.8581 31.396H87.0984C87.3014 31.396 87.4899 31.2656 87.5551 31.0771L92.9992 15.8466C93.137 15.4914 92.876 15.129 92.5063 15.129Z" fill="#191A38"/>
<path d="M120.517 15.0854C117.741 15.0854 116.385 17.4124 116.385 17.4124V15.5711C116.385 15.3247 116.189 15.1289 115.943 15.1289H112.528C112.282 15.1289 112.086 15.3247 112.086 15.5711V30.9176C112.086 31.1858 112.304 31.4033 112.572 31.4033H115.899C116.168 31.4033 116.385 31.1858 116.385 30.9176V22.8348C116.385 21.153 117.451 19.3769 119.263 19.3769C120.068 19.3769 120.843 19.4712 121.496 19.8916C121.822 20.1164 122.271 20.0874 122.561 19.7974L124.439 17.9271C124.794 17.5719 124.794 16.992 124.41 16.6658C123.649 16.0206 122.293 15.0854 120.517 15.0854Z" fill="#191A38"/>
<path d="M130.506 15.129H127.128C126.882 15.129 126.686 15.3247 126.686 15.5712V30.9176C126.686 31.1858 126.904 31.4033 127.172 31.4033H130.463C130.731 31.4033 130.949 31.1858 130.949 30.9176V15.5712C130.949 15.3247 130.753 15.129 130.506 15.129Z" fill="#191A38"/>
<path d="M144.425 15.129H140.148V11.2289C140.148 10.9824 139.952 10.7867 139.705 10.7867H136.291C136.045 10.7867 135.849 10.9824 135.849 11.2289V15.129H133.805C133.558 15.129 133.362 15.3247 133.362 15.5711V18.3693C133.362 18.6158 133.558 18.8115 133.805 18.8115H135.849V26.4014C135.849 29.1633 138.089 31.396 140.844 31.396H144.417C144.664 31.396 144.86 31.2003 144.86 30.9538V27.5395C144.86 27.293 144.664 27.0973 144.417 27.0973H141.627C140.822 27.0973 140.14 26.4521 140.14 25.6112V18.8043H144.417C144.664 18.8043 144.86 18.6085 144.86 18.3621V15.5639C144.867 15.3247 144.664 15.129 144.425 15.129Z" fill="#191A38"/>
<path d="M161.989 19.6162C161.235 17.8619 159.829 16.4483 158.068 15.6944C150.76 12.57 143.787 19.5437 146.911 26.8508C147.665 28.6051 149.071 30.0187 150.833 30.7726C158.147 33.897 165.114 26.9305 161.989 19.6162ZM157.966 25.285C157.662 25.9084 157.154 26.4304 156.538 26.7493C152.768 28.6848 149.006 24.9225 150.942 21.1602C151.261 20.5368 151.775 20.0366 152.406 19.7321C156.183 17.8836 159.807 21.5082 157.966 25.285Z" fill="#191A38"/>
<path d="M128.817 13.4544C130.118 13.4544 131.173 12.3996 131.173 11.0984C131.173 9.79727 130.118 8.74246 128.817 8.74246C127.516 8.74246 126.461 9.79727 126.461 11.0984C126.461 12.3996 127.516 13.4544 128.817 13.4544Z" fill="#191A38"/>
<defs>
<linearGradient id="paint0_linear_1_1172" x1="0" y1="40" x2="39.9434" y2="-2.12697" gradientUnits="userSpaceOnUse">
<stop stop-color="#E31581"/>
<stop offset="1" stop-color="#FA475C"/>
</linearGradient>
</defs>
</svg>
