<svg width="204" height="50" viewBox="0 0 204 50" fill="none" xmlns="http://www.w3.org/2000/svg">
<path d="M47.3264 14.9085L52.1479 6.56154C53.8336 3.64328 51.731 0 48.3596 0H10.4495C4.67646 0 0 4.67646 0 10.4495V28.0769C0 30.2248 1.55882 32.0645 3.67954 32.3999C12.389 33.7593 19.5305 39.8586 22.3763 47.979C23.2373 50.435 26.6087 50.7341 27.9137 48.4774L39.7861 27.9772C41.4718 25.0589 39.3692 21.4066 35.9978 21.4066H23.6632C22.476 21.4066 21.5153 20.4459 21.5153 19.2587C21.5153 18.0714 22.476 17.1107 23.6632 17.1107H43.5382C45.097 17.1017 46.547 16.2679 47.3264 14.9085Z" fill="url(#paint0_linear_559_47)"/>
<path d="M100.997 44.2087L99.7009 43.8009C99.4381 43.7193 99.2478 43.6015 99.1209 43.4565C98.994 43.3115 98.9306 43.1393 98.9306 42.9399C98.9306 42.7677 98.9759 42.6136 99.0665 42.4868C99.1572 42.3508 99.284 42.2511 99.4472 42.1786C99.6103 42.1061 99.8006 42.0699 100.018 42.0699C100.381 42.0699 100.698 42.1696 100.979 42.3599C101.26 42.5593 101.468 42.8312 101.595 43.1755L102.664 42.7043C102.538 42.3508 102.347 42.0427 102.094 41.7799C101.84 41.517 101.532 41.3086 101.178 41.1636C100.825 41.0186 100.435 40.937 100.009 40.937C99.5469 40.937 99.139 41.0276 98.7856 41.1998C98.4321 41.372 98.1512 41.6167 97.9427 41.9249C97.7433 42.233 97.6437 42.5955 97.6437 42.9943C97.6437 43.4656 97.7796 43.8643 98.0696 44.1997C98.3506 44.535 98.7675 44.7887 99.3112 44.9609L100.662 45.396C100.906 45.4775 101.097 45.5863 101.214 45.7222C101.341 45.8582 101.396 46.0213 101.396 46.2297C101.396 46.411 101.35 46.556 101.26 46.6829C101.169 46.8098 101.042 46.9095 100.87 46.982C100.698 47.0545 100.508 47.0907 100.281 47.0907C99.8731 47.0907 99.5106 46.9729 99.1934 46.7463C98.8671 46.5198 98.6224 46.2026 98.4503 45.7947L97.3718 46.2569C97.5077 46.6466 97.7071 46.991 97.979 47.281C98.2509 47.5711 98.5862 47.8067 98.9668 47.9698C99.3475 48.1329 99.7644 48.2145 100.199 48.2145C100.689 48.2145 101.124 48.1239 101.486 47.9517C101.849 47.7795 102.139 47.5348 102.347 47.2267C102.556 46.9185 102.655 46.556 102.655 46.1572C102.655 45.686 102.519 45.2872 102.239 44.9609C101.985 44.6437 101.559 44.39 100.997 44.2087Z" fill="white"/>
<path d="M106.96 45.976C106.96 46.2025 106.915 46.4019 106.824 46.565C106.734 46.7282 106.616 46.8551 106.453 46.9457C106.299 47.0363 106.117 47.0816 105.909 47.0816C105.71 47.0816 105.528 47.0363 105.365 46.9457C105.202 46.8551 105.084 46.7282 104.994 46.565C104.912 46.4019 104.867 46.2207 104.867 46.0031V42.958H103.616V46.1119C103.616 46.5379 103.698 46.9004 103.852 47.2176C104.006 47.5348 104.232 47.7795 104.522 47.9607C104.812 48.142 105.157 48.2235 105.565 48.2235C105.927 48.2235 106.253 48.142 106.525 47.9879C106.734 47.8701 106.897 47.6979 107.015 47.4804V48.1148H108.193V42.958H106.951V45.976H106.96Z" fill="white"/>
<path d="M112.679 43.076C112.353 42.9219 111.981 42.8403 111.564 42.8403C111.22 42.8403 110.894 42.8947 110.595 43.0125C110.295 43.1303 110.042 43.2844 109.824 43.4838C109.607 43.6832 109.444 43.9188 109.344 44.1907L110.359 44.6801C110.45 44.4535 110.604 44.2632 110.812 44.1182C111.02 43.9732 111.256 43.9007 111.519 43.9007C111.8 43.9007 112.026 43.9732 112.199 44.1273C112.371 44.2723 112.452 44.4626 112.452 44.6801V44.8432L110.93 45.097C110.522 45.1604 110.187 45.2692 109.924 45.4233C109.661 45.5773 109.462 45.7586 109.335 45.9852C109.208 46.2117 109.144 46.4655 109.144 46.7464C109.144 47.0455 109.217 47.3083 109.362 47.5259C109.507 47.7524 109.715 47.9246 109.978 48.0424C110.25 48.1602 110.558 48.2237 110.921 48.2237C111.202 48.2237 111.465 48.1874 111.691 48.1059C111.918 48.0334 112.126 47.9156 112.316 47.7615C112.389 47.698 112.461 47.6255 112.534 47.553V48.0968H113.712V44.6801C113.712 44.3176 113.622 44.0004 113.44 43.7194C113.25 43.4475 112.996 43.23 112.679 43.076ZM112.289 46.6467C112.181 46.8461 112.026 47.0002 111.827 47.109C111.628 47.2177 111.401 47.2721 111.138 47.2721C110.939 47.2721 110.767 47.2177 110.631 47.118C110.495 47.0183 110.431 46.8733 110.431 46.6921C110.431 46.5108 110.495 46.3658 110.613 46.248C110.73 46.1392 110.912 46.0577 111.165 46.0123L112.452 45.7858V46.0033C112.452 46.2389 112.398 46.4564 112.289 46.6467Z" fill="white"/>
<path d="M123.31 43.085C123.02 42.9219 122.694 42.8403 122.331 42.8403C121.923 42.8403 121.561 42.94 121.243 43.1485C121.035 43.2844 120.872 43.4657 120.727 43.6832C120.618 43.4838 120.464 43.3116 120.256 43.1757C119.929 42.9581 119.558 42.8403 119.141 42.8403C118.76 42.8403 118.425 42.931 118.135 43.1122C117.945 43.23 117.809 43.4022 117.7 43.6107V42.9581H116.522V48.1149H117.772V45.097C117.772 44.8704 117.818 44.671 117.899 44.5079C117.981 44.3448 118.099 44.2179 118.253 44.1273C118.407 44.0366 118.579 43.9913 118.769 43.9913C118.969 43.9913 119.15 44.0366 119.295 44.1273C119.44 44.2179 119.558 44.3448 119.639 44.5079C119.721 44.671 119.766 44.8704 119.766 45.097V48.1149H121.008V45.097C121.008 44.8704 121.053 44.671 121.135 44.5079C121.216 44.3448 121.334 44.2179 121.488 44.1273C121.642 44.0366 121.814 43.9913 122.005 43.9913C122.204 43.9913 122.385 44.0366 122.53 44.1273C122.675 44.2179 122.793 44.3448 122.875 44.5079C122.956 44.671 123.002 44.8704 123.002 45.097V48.1149H124.243V44.7979C124.243 44.4173 124.162 44.0729 123.999 43.7829C123.826 43.4838 123.6 43.2482 123.31 43.085Z" fill="white"/>
<path d="M129.482 43.5926C129.264 43.3569 129.01 43.1757 128.702 43.0397C128.394 42.9038 128.041 42.8403 127.633 42.8403C127.143 42.8403 126.708 42.9581 126.328 43.1938C125.938 43.4294 125.639 43.7466 125.412 44.1454C125.186 44.5442 125.068 45.0064 125.068 45.5229C125.068 46.0214 125.177 46.4746 125.403 46.8824C125.621 47.2902 125.938 47.6165 126.337 47.8612C126.736 48.0968 127.207 48.2237 127.732 48.2237C128.077 48.2237 128.403 48.1693 128.702 48.0606C129.001 47.9518 129.255 47.8068 129.473 47.6165C129.69 47.4262 129.844 47.2086 129.944 46.964L128.938 46.4746C128.82 46.6739 128.666 46.8371 128.467 46.9549C128.267 47.0727 128.022 47.1361 127.742 47.1361C127.461 47.1361 127.207 47.0727 126.989 46.9368C126.772 46.8008 126.609 46.6196 126.5 46.3749C126.436 46.2299 126.391 46.0667 126.373 45.8945H130.08C130.107 45.822 130.125 45.7314 130.134 45.6408C130.143 45.5501 130.152 45.4595 130.152 45.3598C130.152 45.0154 130.098 44.6892 129.98 44.3901C129.862 44.091 129.699 43.8282 129.482 43.5926ZM126.944 44.0638C127.143 43.9279 127.379 43.8644 127.633 43.8644C127.905 43.8644 128.14 43.9279 128.331 44.0638C128.521 44.1998 128.666 44.372 128.747 44.6076C128.784 44.7073 128.811 44.8251 128.82 44.9429H126.4C126.418 44.8342 126.446 44.7345 126.491 44.6438C126.591 44.3901 126.745 44.1998 126.944 44.0638Z" fill="white"/>
<path d="M132.327 40.937H131.077V48.1058H132.327V40.937Z" fill="white"/>
<path d="M137.103 43.0849C136.813 42.9218 136.469 42.8402 136.098 42.8402C135.735 42.8402 135.409 42.9218 135.137 43.0849C134.965 43.1846 134.829 43.3206 134.72 43.4746V40.937H133.469V48.1058H134.72V45.0878C134.72 44.8612 134.765 44.6619 134.856 44.4987C134.947 44.3356 135.064 44.2087 135.227 44.1181C135.382 44.0275 135.563 43.9821 135.771 43.9821C135.98 43.9821 136.161 44.0275 136.315 44.1181C136.469 44.2087 136.587 44.3356 136.678 44.4987C136.768 44.6619 136.813 44.8612 136.813 45.0878V48.1058H138.055V44.7887C138.055 44.4081 137.974 44.0637 137.81 43.7737C137.629 43.4837 137.394 43.248 137.103 43.0849Z" fill="white"/>
<path d="M142.976 43.1938C142.568 42.9581 142.106 42.8403 141.59 42.8403C141.082 42.8403 140.629 42.9581 140.212 43.1938C139.804 43.4294 139.469 43.7466 139.224 44.1545C138.98 44.5623 138.853 45.0154 138.853 45.5411C138.853 46.0577 138.98 46.5199 139.224 46.9277C139.469 47.3355 139.804 47.6527 140.212 47.8884C140.629 48.124 141.082 48.2418 141.581 48.2418C142.088 48.2418 142.541 48.124 142.958 47.8884C143.366 47.6527 143.701 47.3355 143.946 46.9277C144.191 46.5199 144.318 46.0667 144.318 45.5411C144.318 45.0154 144.2 44.5532 143.955 44.1545C143.719 43.7466 143.393 43.4294 142.976 43.1938ZM142.84 46.3295C142.713 46.5652 142.55 46.7464 142.342 46.8824C142.133 47.0183 141.88 47.0818 141.599 47.0818C141.318 47.0818 141.073 47.0183 140.856 46.8824C140.638 46.7464 140.475 46.5652 140.348 46.3295C140.221 46.0939 140.167 45.822 140.167 45.532C140.167 45.242 140.23 44.9701 140.348 44.7345C140.475 44.4988 140.638 44.3176 140.856 44.1816C141.073 44.0457 141.318 43.9823 141.599 43.9823C141.88 43.9823 142.133 44.0457 142.342 44.1816C142.55 44.3176 142.722 44.4988 142.84 44.7345C142.967 44.9701 143.022 45.2329 143.022 45.532C143.022 45.8311 142.967 46.0939 142.84 46.3295Z" fill="white"/>
<path d="M146.9 43.1302C146.701 43.248 146.547 43.4383 146.429 43.6921V42.967H145.251V48.1238H146.502V45.2509C146.502 44.8612 146.61 44.553 146.828 44.3446C147.045 44.1271 147.326 44.0183 147.68 44.0183H148.124V42.9126H147.825C147.462 42.8945 147.154 42.9761 146.9 43.1302Z" fill="white"/>
<path d="M154.686 43.5926C154.468 43.3569 154.214 43.1757 153.906 43.0397C153.598 42.9038 153.245 42.8403 152.837 42.8403C152.347 42.8403 151.912 42.9581 151.532 43.1938C151.142 43.4294 150.843 43.7466 150.616 44.1454C150.39 44.5442 150.272 45.0064 150.272 45.5229C150.272 46.0214 150.381 46.4746 150.607 46.8824C150.825 47.2902 151.142 47.6165 151.541 47.8612C151.939 48.0968 152.411 48.2237 152.936 48.2237C153.281 48.2237 153.607 48.1693 153.906 48.0606C154.205 47.9518 154.459 47.8068 154.676 47.6165C154.894 47.4262 155.048 47.2086 155.148 46.964L154.142 46.4746C154.024 46.6739 153.87 46.8371 153.67 46.9549C153.471 47.0727 153.226 47.1361 152.945 47.1361C152.664 47.1361 152.411 47.0727 152.193 46.9368C151.976 46.8008 151.813 46.6196 151.704 46.3749C151.64 46.2299 151.595 46.0667 151.577 45.8945H155.284C155.311 45.822 155.329 45.7314 155.338 45.6408C155.347 45.5501 155.356 45.4595 155.356 45.3598C155.356 45.0154 155.302 44.6892 155.184 44.3901C155.066 44.091 154.903 43.8282 154.686 43.5926ZM152.148 44.0638C152.347 43.9279 152.583 43.8644 152.837 43.8644C153.109 43.8644 153.344 43.9279 153.535 44.0638C153.725 44.1998 153.87 44.372 153.951 44.6076C153.988 44.7073 154.015 44.8251 154.024 44.9429H151.604C151.622 44.8342 151.649 44.7345 151.695 44.6438C151.794 44.3901 151.949 44.1998 152.148 44.0638Z" fill="white"/>
<path d="M159.353 42.958L158.265 44.5531L157.178 42.958H155.719L157.531 45.5228L155.728 48.1057H157.187L158.265 46.5107L159.335 48.1057H160.785L158.999 45.5228L160.794 42.958H159.353Z" fill="white"/>
<path d="M165.615 43.2028C165.226 42.9672 164.782 42.8403 164.301 42.8403C163.902 42.8403 163.549 42.9219 163.25 43.076C163.005 43.2028 162.806 43.366 162.643 43.5654V42.9581H161.465V50.0091H162.715V47.6165C162.869 47.7796 163.051 47.9156 163.259 48.0152C163.567 48.1603 163.912 48.2328 164.283 48.2328C164.782 48.2328 165.226 48.1149 165.615 47.8793C166.005 47.6437 166.313 47.3174 166.54 46.9096C166.766 46.5017 166.884 46.0486 166.884 45.5501C166.884 45.0426 166.766 44.5895 166.54 44.1816C166.322 43.7647 166.014 43.4385 165.615 43.2028ZM165.416 46.3386C165.289 46.5742 165.117 46.7555 164.899 46.8914C164.682 47.0274 164.428 47.0908 164.147 47.0908C163.875 47.0908 163.631 47.0274 163.413 46.8914C163.196 46.7555 163.023 46.5742 162.906 46.3386C162.779 46.103 162.724 45.8401 162.724 45.532C162.724 45.2329 162.788 44.9701 162.906 44.7345C163.032 44.4988 163.196 44.3176 163.413 44.1816C163.631 44.0457 163.875 43.9823 164.147 43.9823C164.428 43.9823 164.682 44.0457 164.899 44.1816C165.117 44.3176 165.289 44.4988 165.416 44.7345C165.543 44.9701 165.606 45.2329 165.606 45.532C165.606 45.8311 165.543 46.103 165.416 46.3386Z" fill="white"/>
<path d="M172.041 43.5926C171.823 43.3569 171.57 43.1757 171.262 43.0397C170.953 42.9038 170.6 42.8403 170.192 42.8403C169.703 42.8403 169.268 42.9581 168.887 43.1938C168.497 43.4294 168.198 43.7466 167.972 44.1454C167.745 44.5442 167.627 45.0064 167.627 45.5229C167.627 46.0214 167.736 46.4746 167.963 46.8824C168.18 47.2902 168.497 47.6165 168.896 47.8612C169.295 48.0968 169.766 48.2237 170.292 48.2237C170.636 48.2237 170.962 48.1693 171.262 48.0606C171.561 47.9518 171.814 47.8068 172.032 47.6165C172.249 47.4262 172.403 47.2086 172.503 46.964L171.497 46.4746C171.379 46.6739 171.225 46.8371 171.026 46.9549C170.827 47.0727 170.582 47.1361 170.301 47.1361C170.02 47.1361 169.766 47.0727 169.549 46.9368C169.331 46.8008 169.168 46.6196 169.059 46.3749C168.996 46.2299 168.951 46.0667 168.932 45.8945H172.639C172.666 45.822 172.684 45.7314 172.693 45.6408C172.703 45.5501 172.712 45.4595 172.712 45.3598C172.712 45.0154 172.657 44.6892 172.539 44.3901C172.422 44.091 172.258 43.8282 172.041 43.5926ZM169.503 44.0638C169.703 43.9279 169.938 43.8644 170.192 43.8644C170.464 43.8644 170.7 43.9279 170.89 44.0638C171.08 44.1998 171.225 44.372 171.307 44.6076C171.343 44.7073 171.37 44.8251 171.379 44.9429H168.96C168.978 44.8342 169.005 44.7345 169.05 44.6438C169.15 44.3901 169.304 44.1998 169.503 44.0638Z" fill="white"/>
<path d="M175.276 43.1302C175.077 43.248 174.923 43.4383 174.805 43.6921V42.967H173.627V48.1238H174.878V45.2509C174.878 44.8612 174.986 44.553 175.204 44.3446C175.421 44.1271 175.702 44.0183 176.056 44.0183H176.5V42.9126H176.201C175.838 42.8945 175.53 42.9761 175.276 43.1302Z" fill="white"/>
<path d="M178.43 41.0547H177.18V42.3779H178.43V41.0547Z" fill="white"/>
<path d="M178.43 42.958H177.18V48.1148H178.43V42.958Z" fill="white"/>
<path d="M181.901 41.1908L182.518 42.0427H183.75L182.635 40.4839H181.167L180.053 42.0427H181.285L181.901 41.1908Z" fill="white"/>
<path d="M183.768 43.5926C183.551 43.3569 183.297 43.1757 182.989 43.0397C182.681 42.9038 182.327 42.8403 181.92 42.8403C181.43 42.8403 180.995 42.9581 180.614 43.1938C180.225 43.4294 179.926 43.7466 179.699 44.1454C179.473 44.5442 179.355 45.0064 179.355 45.5229C179.355 46.0214 179.463 46.4746 179.69 46.8824C179.908 47.2902 180.225 47.6165 180.624 47.8612C181.022 48.0968 181.494 48.2237 182.019 48.2237C182.364 48.2237 182.69 48.1693 182.989 48.0606C183.288 47.9518 183.542 47.8068 183.759 47.6165C183.977 47.4262 184.131 47.2086 184.231 46.964L183.225 46.4746C183.107 46.6739 182.953 46.8371 182.753 46.9549C182.554 47.0727 182.309 47.1361 182.028 47.1361C181.747 47.1361 181.494 47.0727 181.276 46.9368C181.059 46.8008 180.895 46.6196 180.787 46.3749C180.723 46.2299 180.678 46.0667 180.66 45.8945H184.367C184.394 45.822 184.412 45.7314 184.421 45.6408C184.43 45.5501 184.439 45.4595 184.439 45.3598C184.439 45.0154 184.385 44.6892 184.267 44.3901C184.149 44.091 183.986 43.8282 183.768 43.5926ZM181.231 44.0638C181.43 43.9279 181.666 43.8644 181.92 43.8644C182.191 43.8644 182.427 43.9279 182.617 44.0638C182.808 44.1998 182.953 44.372 183.034 44.6076C183.071 44.7073 183.098 44.8251 183.107 44.9429H180.687C180.705 44.8342 180.732 44.7345 180.778 44.6438C180.877 44.3901 181.031 44.1998 181.231 44.0638Z" fill="white"/>
<path d="M188.998 43.085C188.708 42.9219 188.363 42.8403 187.992 42.8403C187.629 42.8403 187.303 42.9219 187.031 43.085C186.823 43.2119 186.65 43.3841 186.533 43.5926V42.9581H185.354V48.1149H186.605V45.097C186.605 44.8704 186.65 44.671 186.741 44.5079C186.832 44.3448 186.949 44.2179 187.113 44.1273C187.267 44.0366 187.448 43.9913 187.656 43.9913C187.856 43.9913 188.037 44.0366 188.2 44.1273C188.354 44.2179 188.481 44.3448 188.572 44.5079C188.662 44.671 188.708 44.8704 188.708 45.097V48.1149H189.949V44.7979C189.949 44.4173 189.868 44.0729 189.705 43.7829C189.523 43.4838 189.297 43.2482 188.998 43.085Z" fill="white"/>
<path d="M192.741 44.1816C192.949 44.0547 193.194 43.9913 193.466 43.9913C193.756 43.9913 194.009 44.0728 194.236 44.2269C194.463 44.381 194.617 44.5894 194.716 44.8613L195.804 44.381C195.704 44.0819 195.541 43.81 195.305 43.5834C195.079 43.3569 194.798 43.1756 194.49 43.0487C194.173 42.9218 193.828 42.8584 193.466 42.8584C192.949 42.8584 192.487 42.9762 192.079 43.2119C191.671 43.4475 191.354 43.7647 191.118 44.1725C190.883 44.5803 190.765 45.0335 190.765 45.5501C190.765 46.0576 190.883 46.5198 191.118 46.9276C191.354 47.3355 191.671 47.6527 192.079 47.8974C192.487 48.133 192.94 48.2508 193.466 48.2508C193.837 48.2508 194.182 48.1874 194.499 48.0605C194.816 47.9336 195.088 47.7524 195.314 47.5167C195.541 47.2902 195.704 47.0273 195.804 46.7373L194.716 46.2479C194.617 46.5107 194.453 46.7283 194.236 46.8823C194.018 47.0364 193.765 47.118 193.466 47.118C193.194 47.118 192.949 47.0545 192.741 46.9186C192.532 46.7826 192.36 46.6014 192.242 46.3657C192.124 46.1301 192.061 45.8673 192.061 45.5591C192.061 45.2601 192.124 44.9972 192.242 44.7616C192.369 44.4988 192.532 44.3085 192.741 44.1816Z" fill="white"/>
<path d="M197.988 42.958H196.737V48.1148H197.988V42.958Z" fill="white"/>
<path d="M197.988 41.0547H196.737V42.3779H197.988V41.0547Z" fill="white"/>
<path d="M203.208 43.7192C203.027 43.4383 202.773 43.2208 202.456 43.0667C202.13 42.9126 201.758 42.8311 201.341 42.8311C200.997 42.8311 200.671 42.8854 200.372 43.0032C200.072 43.1211 199.819 43.2751 199.601 43.4745C199.384 43.6739 199.221 43.9095 199.121 44.1814L200.136 44.6708C200.227 44.4442 200.381 44.2539 200.589 44.1089C200.798 43.9639 201.033 43.8914 201.296 43.8914C201.577 43.8914 201.804 43.9639 201.976 44.118C202.148 44.263 202.229 44.4533 202.229 44.6708V44.834L200.707 45.0877C200.299 45.1512 199.964 45.2599 199.701 45.414C199.438 45.568 199.239 45.7493 199.112 45.9759C198.985 46.2025 198.922 46.4562 198.922 46.7372C198.922 47.0362 198.994 47.2991 199.139 47.5166C199.284 47.7431 199.492 47.9153 199.755 48.0332C200.027 48.151 200.335 48.2144 200.698 48.2144C200.979 48.2144 201.242 48.1782 201.468 48.0966C201.695 48.0241 201.903 47.9063 202.094 47.7522C202.166 47.6888 202.239 47.6163 202.311 47.5438V48.0875H203.489V44.6799C203.48 44.3174 203.39 44.0002 203.208 43.7192ZM202.066 46.6465C201.958 46.8459 201.804 47 201.604 47.1087C201.405 47.2175 201.178 47.2719 200.915 47.2719C200.716 47.2719 200.544 47.2175 200.408 47.1178C200.272 47.0181 200.208 46.8731 200.208 46.6918C200.208 46.5106 200.272 46.3656 200.39 46.2478C200.508 46.139 200.689 46.0574 200.943 46.0121L202.229 45.7856V46.0031C202.229 46.2387 202.175 46.4562 202.066 46.6465Z" fill="white"/>
<path d="M71.8688 3.88818H68.5336C64.4553 3.88818 61.1564 7.18708 61.1564 11.2654V12.2895H58.6007C58.2925 12.2895 58.0479 12.5342 58.0479 12.8423V16.3406C58.0479 16.6487 58.2925 16.8934 58.6007 16.8934H61.1564V32.0285C61.1564 32.3638 61.4283 32.6357 61.7636 32.6357H65.9235C66.2588 32.6357 66.5307 32.3638 66.5307 32.0285V16.8934H71.8778C72.186 16.8934 72.4307 16.6487 72.4307 16.3406V12.8423C72.4307 12.5342 72.186 12.2895 71.8778 12.2895H66.5307V11.2654C66.5307 10.1597 67.437 9.26248 68.5336 9.26248H71.8688C72.1769 9.26248 72.4216 9.01778 72.4216 8.70964V4.44102C72.4307 4.13288 72.1769 3.88818 71.8688 3.88818Z" fill="white"/>
<path d="M94.2813 12.2892H90.0127C89.7045 12.2892 89.4598 12.5339 89.4598 12.842V13.9839C87.8195 12.3436 85.2365 11.6548 81.5933 12.4614C79.1281 13.0052 76.9712 14.5368 75.7024 16.73C71.1347 24.651 76.8262 32.9254 84.4481 32.9254C86.6322 32.9254 88.2817 32.2366 89.4598 31.0675V32.6263H94.8341V12.842C94.8341 12.5339 94.5895 12.2892 94.2813 12.2892ZM89.4598 22.5484C89.4598 25.2944 87.2394 27.5602 84.4481 27.5602C80.7323 27.5602 77.959 23.5453 80.2066 19.7208C80.6235 19.0139 81.2489 18.4338 81.992 18.0804C85.8075 16.2678 89.4508 18.9957 89.4508 22.5121V22.5484H89.4598Z" fill="white"/>
<path d="M131.856 13.0055C122.721 9.09936 114.002 17.8179 117.908 26.9533C118.851 29.1465 120.609 30.9138 122.811 31.8563C131.947 35.7624 140.656 27.0439 136.759 17.9085C135.817 15.7062 134.049 13.9389 131.856 13.0055ZM131.729 24.9866C131.349 25.766 130.714 26.4186 129.944 26.8173C125.231 29.2371 120.527 24.5335 122.947 19.8298C123.346 19.0504 123.989 18.4251 124.778 18.0444C129.5 15.7334 134.022 20.2649 131.729 24.9866Z" fill="white"/>
<path d="M115.652 12.2891H111.401C111.12 12.2891 110.866 12.4703 110.767 12.7331L106.861 23.6267L102.945 12.7331C102.846 12.4703 102.601 12.2891 102.311 12.2891H98.0515C97.5893 12.2891 97.263 12.7513 97.4171 13.1863L104.269 32.2274C104.359 32.4721 104.586 32.6262 104.84 32.6262H108.891C109.144 32.6262 109.38 32.4631 109.462 32.2274L116.268 13.1863C116.44 12.7422 116.114 12.2891 115.652 12.2891Z" fill="white"/>
<path d="M150.671 12.2349C147.2 12.2349 145.505 15.1441 145.505 15.1441V12.8421C145.505 12.5339 145.26 12.2892 144.952 12.2892H140.683C140.375 12.2892 140.13 12.5339 140.13 12.8421V32.0282C140.13 32.3636 140.402 32.6354 140.738 32.6354H144.898C145.233 32.6354 145.505 32.3636 145.505 32.0282V21.9231C145.505 19.8205 146.837 17.6001 149.103 17.6001C150.109 17.6001 151.078 17.7179 151.894 18.2436C152.302 18.5245 152.864 18.4883 153.226 18.1257L155.574 15.7875C156.018 15.3434 156.018 14.6184 155.537 14.2106C154.586 13.404 152.891 12.2349 150.671 12.2349Z" fill="white"/>
<path d="M163.159 12.2891H158.936C158.628 12.2891 158.383 12.5338 158.383 12.8419V32.028C158.383 32.3634 158.655 32.6353 158.99 32.6353H163.105C163.44 32.6353 163.712 32.3634 163.712 32.028V12.8419C163.712 12.5338 163.467 12.2891 163.159 12.2891Z" fill="white"/>
<path d="M180.56 12.289H175.213V7.41319C175.213 7.10505 174.968 6.86035 174.66 6.86035H170.392C170.083 6.86035 169.839 7.10505 169.839 7.41319V12.289H167.283C166.975 12.289 166.73 12.5337 166.73 12.8419V16.3401C166.73 16.6483 166.975 16.893 167.283 16.893H169.839V26.3818C169.839 29.8348 172.639 32.6262 176.083 32.6262H180.551C180.859 32.6262 181.104 32.3815 181.104 32.0733V27.8047C181.104 27.4966 180.859 27.2519 180.551 27.2519H177.062C176.056 27.2519 175.204 26.4453 175.204 25.394V16.8839H180.551C180.859 16.8839 181.104 16.6392 181.104 16.3311V12.8328C181.113 12.5337 180.859 12.289 180.56 12.289Z" fill="white"/>
<path d="M202.52 17.8992C201.577 15.706 199.819 13.9387 197.616 12.9962C188.481 9.09008 179.763 17.8086 183.669 26.944C184.611 29.1372 186.369 30.9045 188.572 31.847C197.716 35.7531 206.426 27.0437 202.52 17.8992ZM197.49 24.9864C197.109 25.7658 196.475 26.4183 195.704 26.8171C190.991 29.2369 186.288 24.5333 188.708 19.8296C189.106 19.0502 189.75 18.4249 190.538 18.0442C195.26 15.7332 199.792 20.2646 197.49 24.9864Z" fill="white"/>
<path d="M161.048 10.1956C162.674 10.1956 163.993 8.87685 163.993 7.25013C163.993 5.62341 162.674 4.30469 161.048 4.30469C159.421 4.30469 158.102 5.62341 158.102 7.25013C158.102 8.87685 159.421 10.1956 161.048 10.1956Z" fill="white"/>
<defs>
<linearGradient id="paint0_linear_559_47" x1="0" y1="50.0081" x2="49.9373" y2="-2.65915" gradientUnits="userSpaceOnUse">
<stop stop-color="#E31581"/>
<stop offset="1" stop-color="#FA475C"/>
</linearGradient>
</defs>
</svg>
