<svg width="47" height="14" viewBox="0 0 47 14" fill="none" xmlns="http://www.w3.org/2000/svg">
<g clip-path="url(#clip0_559_90)">
<path d="M7.44801 10.2407H5.75378C5.70741 10.2407 5.66891 10.2777 5.66655 10.324C5.62333 11.3346 4.78957 12.1408 3.768 12.1408C2.74643 12.1408 1.91345 11.3346 1.86945 10.324C1.86709 10.2777 1.82859 10.2407 1.78222 10.2407H0.0887713C0.0400502 10.2407 -2.67804e-05 10.2808 0.000759043 10.3295C0.0479085 12.3695 1.71621 14.0095 3.768 14.0095C5.81978 14.0095 7.48809 12.3703 7.53524 10.3295C7.53602 10.2808 7.49673 10.2407 7.44801 10.2407Z" fill="white"/>
<path d="M7.38753 2.10487C7.44254 2.04987 7.40325 1.95557 7.32545 1.95557H3.76881C1.68716 1.95557 0 3.64273 0 5.72359C0 7.80445 1.68716 9.49162 3.76803 9.49162C5.84889 9.49162 7.53605 7.80445 7.53605 5.72359C7.53605 4.68316 7.11406 3.74096 6.43197 3.05886L7.38596 2.10487H7.38753ZM3.76881 7.62371C2.71895 7.62371 1.86869 6.77267 1.86869 5.72359C1.86869 4.67452 2.71974 3.82347 3.76881 3.82347C4.81789 3.82347 5.66893 4.67452 5.66893 5.72359C5.66893 6.77267 4.81789 7.62371 3.76881 7.62371Z" fill="white"/>
<path d="M24.9106 9.49181V5.72457C24.9106 3.64371 23.2234 1.95654 21.1426 1.95654C19.0617 1.95654 17.3746 3.64371 17.3746 5.72457V9.49181H19.2425V5.72457C19.2425 4.67471 20.0935 3.82445 21.1426 3.82445C22.1917 3.82445 23.0427 4.67549 23.0427 5.72457V9.49181H24.9106Z" fill="white"/>
<path d="M43.0097 1.95654C40.9288 1.95654 39.2417 3.64371 39.2417 5.72457V9.49181H41.1096V5.72457C41.1096 4.67471 41.9606 3.82445 43.0097 3.82445C44.0596 3.82445 44.9098 4.67549 44.9098 5.72457V9.49181H46.7777V5.72457C46.7777 3.64371 45.0906 1.95654 43.0097 1.95654Z" fill="white"/>
<path d="M37.2119 2.55322H35.5193C35.4705 2.55322 35.432 2.59251 35.432 2.64045V9.49205H37.2999V2.64124C37.2999 2.59251 37.2606 2.55401 37.2127 2.55401L37.2119 2.55322Z" fill="white"/>
<path d="M37.2119 0.00927734H35.5184C35.4703 0.00927734 35.4312 0.04833 35.4312 0.0965038V1.5212C35.4312 1.56938 35.4703 1.60843 35.5184 1.60843H37.2119C37.2601 1.60843 37.2991 1.56938 37.2991 1.5212V0.0965038C37.2991 0.04833 37.2601 0.00927734 37.2119 0.00927734Z" fill="white"/>
<path d="M33.5539 5.79294V0.0965038C33.5539 0.0477827 33.5146 0.00927734 33.4667 0.00927734H31.774C31.7253 0.00927734 31.6868 0.0485685 31.6868 0.0965038V2.46969C31.1288 2.14279 30.4797 1.95498 29.7866 1.95498C27.7058 1.95498 26.0186 3.64214 26.0186 5.723C26.0186 7.80386 27.7058 9.49103 29.7866 9.49103C31.8675 9.49103 33.5162 7.8408 33.5531 5.79215H33.5547L33.5539 5.79294ZM29.7859 7.62391C28.736 7.62391 27.8857 6.77286 27.8857 5.72379C27.8857 4.67471 28.7368 3.82367 29.7859 3.82367C30.8349 3.82367 31.686 4.67471 31.686 5.72379C31.686 6.77286 30.8349 7.62391 29.7859 7.62391Z" fill="white"/>
<path d="M12.4121 1.9564C12.405 1.95562 12.3979 1.9564 12.3908 1.9564C12.3838 1.9564 12.3767 1.9564 12.3696 1.9564C10.3076 1.97998 8.64325 3.65771 8.64325 5.72443C8.64325 7.79115 10.3076 9.46888 12.3696 9.49167C12.3767 9.49245 12.3838 9.49167 12.3908 9.49167C12.3979 9.49167 12.405 9.49167 12.4121 9.49167C14.4741 9.46809 16.1384 7.79036 16.1384 5.72364C16.1384 3.65693 14.4741 1.97919 12.4121 1.9564ZM12.3908 7.62298C11.3512 7.61198 10.5112 6.76565 10.5112 5.72364C10.5112 4.68164 11.3504 3.83531 12.3908 3.82431C13.4305 3.83531 14.2705 4.68164 14.2705 5.72364C14.2705 6.76565 13.4313 7.61198 12.3908 7.62298Z" fill="white"/>
</g>
<defs>
<clipPath id="clip0_559_90">
<rect width="46.7785" height="14.0002" fill="white" transform="translate(0 0.00927734)"/>
</clipPath>
</defs>
</svg>
