<svg width="156" height="28" viewBox="0 0 156 28" fill="none" xmlns="http://www.w3.org/2000/svg">
<g clip-path="url(#clip0_4030_15)">
<path d="M90.36 5.78929C89.0985 5.68266 87.8352 5.97328 86.7471 6.62045C85.659 7.26761 84.8005 8.2389 84.292 9.39829C83.059 12.4353 80.592 18.4143 80.499 18.6983L80.309 18.9833L80.025 18.6033L76.991 11.2033C76.7955 10.5178 76.3845 9.91343 75.8187 9.47976C75.2529 9.04609 74.5626 8.80617 73.8498 8.79551C73.137 8.78485 72.4398 9.00403 71.8613 9.42058C71.2828 9.83714 70.8539 10.4289 70.638 11.1083L67.6 18.5983L67.316 18.9783L67.032 18.6933C66.937 18.4083 64.567 12.3343 63.239 9.39329C62.7303 8.23418 61.8717 7.26323 60.7836 6.61642C59.6955 5.96962 58.4323 5.67935 57.171 5.78629H56.318C55.0368 4.003 53.3496 2.55026 51.3958 1.54817C49.442 0.546085 47.2778 0.0234375 45.082 0.0234375C42.8862 0.0234375 40.722 0.546085 38.7682 1.54817C36.8144 2.55026 35.1272 4.003 33.846 5.78629H33.182C31.9208 5.68062 30.6581 5.97202 29.5707 6.61971C28.4833 7.2674 27.6257 8.23894 27.118 9.39829C25.885 12.4353 23.418 18.4143 23.325 18.6983L23.135 18.9833L22.851 18.6033L19.912 11.2033C19.6806 10.5262 19.2478 9.93608 18.6716 9.51194C18.0954 9.08781 17.4032 8.84996 16.688 8.83029C15.9899 8.86837 15.3191 9.11412 14.7616 9.53603C14.2041 9.95794 13.7853 10.5368 13.559 11.1983L10.525 18.5983L10.241 18.9783L9.956 18.6983C9.861 18.4133 7.491 12.3393 6.163 9.39829C5.66543 8.27094 4.83642 7.32179 3.78623 6.67711C2.73605 6.03242 1.51448 5.72275 0.284 5.78929H0V9.58929H0.569C1.02884 9.53921 1.49302 9.63049 1.89965 9.85096C2.30629 10.0714 2.63606 10.4106 2.845 10.8233C4.078 13.7653 6.545 20.0293 6.545 20.0293C6.812 20.8078 7.3083 21.4873 7.96868 21.9785C8.62906 22.4696 9.4226 22.7495 10.245 22.7813C11.0659 22.7505 11.8605 22.4834 12.5333 22.0121C13.2061 21.5408 13.7286 20.8853 14.038 20.1243L16.693 13.4803L19.348 20.1243C19.6574 20.8853 20.1799 21.5408 20.8527 22.0121C21.5255 22.4834 22.3201 22.7505 23.141 22.7813C23.9634 22.7495 24.7569 22.4696 25.4173 21.9785C26.0777 21.4873 26.574 20.8078 26.841 20.0293C26.841 19.9343 29.306 13.7653 30.541 10.8233C30.6579 10.5163 30.8489 10.243 31.097 10.0277C31.3451 9.81239 31.6426 9.66178 31.963 9.58929C31.2936 11.6665 31.1246 13.8725 31.4699 16.0274C31.8152 18.1823 32.6649 20.2251 33.9498 21.9892C35.2347 23.7532 36.9184 25.1886 38.8635 26.1782C40.8086 27.1678 42.9601 27.6837 45.1425 27.6837C47.3249 27.6837 49.4764 27.1678 51.4215 26.1782C53.3666 25.1886 55.0503 23.7532 56.3352 21.9892C57.6201 20.2251 58.4698 18.1823 58.8151 16.0274C59.1604 13.8725 58.9914 11.6665 58.322 9.58929C58.6391 9.66918 58.9331 9.82248 59.1801 10.0368C59.4271 10.2512 59.6202 10.5206 59.744 10.8233C60.977 13.7653 63.444 20.0293 63.444 20.0293C63.7267 20.8532 64.2658 21.5649 64.9824 22.0602C65.699 22.5554 66.5553 22.8081 67.426 22.7813C68.2469 22.7505 69.0415 22.4834 69.7143 22.0121C70.3871 21.5408 70.9096 20.8853 71.219 20.1243L73.874 13.4803L76.529 20.1243C76.838 20.8829 77.3588 21.5366 78.0293 22.0072C78.6998 22.4778 79.4915 22.7455 80.31 22.7783C81.1324 22.7465 81.9259 22.4666 82.5863 21.9755C83.2467 21.4843 83.743 20.8048 84.01 20.0263C84.01 19.9313 86.475 13.7623 87.71 10.8203C87.9244 10.3909 88.2691 10.0403 88.6947 9.81869C89.1204 9.59705 89.6053 9.51571 90.08 9.58629H90.649V5.78629L90.36 5.78929ZM45.322 24.0123C43.336 24.014 41.394 23.4278 39.7406 22.3277C38.0872 21.2275 36.7964 19.6626 36.0309 17.8302C35.2654 15.9977 35.0593 13.9796 35.4388 12.0302C35.8182 10.0809 36.7661 8.28742 38.1631 6.87586C39.5601 5.4643 41.3436 4.49779 43.2889 4.09812C45.2342 3.69845 47.2543 3.8835 49.0947 4.62995C50.935 5.3764 52.5132 6.65085 53.6305 8.29272C54.7477 9.9346 55.354 11.8704 55.373 13.8563C55.3863 15.1849 55.1363 16.5029 54.6372 17.7343C54.1381 18.9656 53.3999 20.0858 52.4653 21.0302C51.5307 21.9746 50.4182 22.7243 49.1921 23.2362C47.966 23.7481 46.6506 24.0118 45.322 24.0123Z" fill="#F8F6F8"/>
<path d="M45.3216 20.5023C44.0261 20.5037 42.7592 20.1208 41.6813 19.402C40.6034 18.6832 39.7629 17.6609 39.2662 16.4643C38.7694 15.2678 38.6387 13.9508 38.8906 12.6799C39.1425 11.4091 39.7657 10.2415 40.6813 9.32493C41.5969 8.40834 42.7638 7.78391 44.0344 7.53065C45.305 7.27739 46.6221 7.40667 47.8192 7.90214C49.0163 8.39761 50.0395 9.23701 50.7594 10.3141C51.4794 11.3913 51.8636 12.6577 51.8636 13.9533C51.8644 15.6892 51.1757 17.3544 49.9488 18.5825C48.722 19.8107 47.0576 20.5012 45.3216 20.5023ZM45.3216 11.1023C44.7772 11.1019 44.245 11.263 43.7922 11.5651C43.3393 11.8673 42.9863 12.2969 42.7777 12.7998C42.5691 13.3026 42.5143 13.856 42.6203 14.39C42.7262 14.9239 42.9882 15.4145 43.373 15.7995C43.7578 16.1846 44.2481 16.4469 44.782 16.5533C45.3159 16.6596 45.8693 16.6052 46.3723 16.397C46.8753 16.1888 47.3052 15.836 47.6077 15.3834C47.9102 14.9308 48.0716 14.3987 48.0716 13.8543C48.0718 13.493 48.0007 13.1353 47.8626 12.8015C47.7245 12.4676 47.5219 12.1643 47.2666 11.9088C47.0112 11.6532 46.708 11.4505 46.3743 11.3121C46.0406 11.1737 45.6829 11.1024 45.3216 11.1023Z" fill="#BFBFBF"/>
<path d="M103.16 12.7177H102.212L101.833 11.5787H99.5575L99.1785 12.7177H98.2305L100.316 6.92773H100.98L103.16 12.7177ZM101.548 10.8177L100.695 8.25473L99.7475 10.8177H101.548Z" fill="#BFBFBF"/>
<path d="M107.996 11.0091C107.944 11.276 107.848 11.5324 107.712 11.7681L107.238 12.3371L106.574 12.7171H105.247L104.773 12.5271L104.299 12.1471L103.92 11.5781C103.825 11.3672 103.761 11.1435 103.73 10.9141V9.01408C103.748 8.82232 103.78 8.63214 103.825 8.44508L104.015 7.97008L104.299 7.49508L104.963 7.02008L105.816 6.83008C106.301 6.82957 106.77 6.99751 107.143 7.30508C107.513 7.65677 107.747 8.12659 107.806 8.63308H106.858C106.818 8.34547 106.685 8.07888 106.479 7.87408C106.27 7.68904 106 7.58759 105.72 7.58908H105.246L104.867 7.87408L104.677 8.15908V11.3861L104.867 11.6711L105.246 11.9561H106.289L106.668 11.5761L106.858 11.1011L107.996 11.0091Z" fill="#BFBFBF"/>
<path d="M112.929 12.7177H109.229V6.92773H112.929V7.68673H110.085V9.39573H112.55V10.1547H110.085V11.9547H112.929V12.7177Z" fill="#BFBFBF"/>
<path d="M117.954 12.7177H114.254V6.92773H115.107V11.9577H117.954V12.7177Z" fill="#BFBFBF"/>
<path d="M122.695 12.7177H118.995V6.92773H122.695V7.68673H119.945V9.39573H122.315V10.1547H119.945V11.9547H122.695V12.7177Z" fill="#BFBFBF"/>
<path d="M128.287 12.7177H127.244L126.011 10.2497H124.873V12.7177H124.02V6.92773H126.296L127.244 7.11773C127.516 7.23817 127.747 7.43604 127.908 7.68673C128.044 7.95011 128.109 8.24441 128.098 8.54073C128.134 8.91179 128.033 9.28334 127.814 9.58473C127.599 9.86219 127.299 10.062 126.961 10.1537L128.287 12.7177ZM127.244 8.63673C127.248 8.51204 127.224 8.38798 127.175 8.27328C127.126 8.15857 127.052 8.05599 126.96 7.97273C126.858 7.87692 126.739 7.80234 126.609 7.75339C126.479 7.70444 126.34 7.68211 126.201 7.68773H124.874V9.48773H126.201C126.34 9.49335 126.479 9.47103 126.609 9.42208C126.739 9.37313 126.858 9.29854 126.96 9.20273C127.052 9.11948 127.126 9.0169 127.175 8.90219C127.224 8.78748 127.248 8.66343 127.244 8.53873" fill="#BFBFBF"/>
<path d="M133.691 12.7177H132.743L132.364 11.5787H130.088L129.709 12.7177H128.761L130.847 6.92773H131.511L133.691 12.7177ZM132.079 10.8177L131.226 8.25473L130.278 10.8177H132.079Z" fill="#BFBFBF"/>
<path d="M138.811 9.77641V10.9154C138.776 11.1441 138.713 11.3673 138.621 11.5794L138.242 12.1484C138.04 12.3397 137.801 12.4886 137.541 12.5863C137.28 12.684 137.003 12.7286 136.725 12.7174H134.639V6.92941H136.725C137.003 6.91256 137.282 6.95451 137.544 7.05254C137.805 7.15057 138.043 7.30248 138.242 7.49841L138.621 8.06741C138.715 8.27875 138.779 8.50227 138.811 8.73141C138.823 8.98425 138.823 9.23757 138.811 9.49041V9.77641ZM137.958 9.77641V9.01741C137.943 8.85616 137.911 8.69692 137.863 8.54241L137.673 8.16241C137.551 8.03497 137.403 7.9351 137.24 7.86955C137.076 7.804 136.901 7.77428 136.725 7.78241H135.682V12.0534H136.725C136.901 12.0615 137.076 12.0318 137.24 11.9663C137.403 11.9007 137.551 11.8009 137.673 11.6734C137.819 11.5145 137.918 11.3172 137.957 11.1044C138.012 10.7271 138.043 10.3467 138.052 9.96541" fill="#BFBFBF"/>
<path d="M144.121 9.77629V10.8203C144.091 11.0497 144.027 11.2734 143.931 11.4843L143.552 12.0533C143.146 12.4476 142.602 12.6681 142.035 12.6681C141.469 12.6681 140.925 12.4476 140.518 12.0533L140.139 11.4843C140.044 11.2734 139.98 11.0497 139.949 10.8203V8.92029C139.967 8.72854 139.999 8.53835 140.044 8.35129L140.234 7.87629L140.518 7.40129C140.912 6.99334 141.449 6.75514 142.016 6.7374C142.583 6.71965 143.134 6.92376 143.552 7.30629L143.931 7.87529C144.025 8.08663 144.089 8.31015 144.121 8.53929V9.58629M143.268 9.58629C143.26 9.23653 143.229 8.88773 143.173 8.54229C143.134 8.3295 143.036 8.13214 142.889 7.97329L142.51 7.68829H141.562L141.183 7.97329C141.036 8.13214 140.938 8.3295 140.899 8.54229C140.834 8.95035 140.802 9.36306 140.804 9.77629V10.5393C140.825 10.6996 140.857 10.8583 140.899 11.0143V11.3943L141.089 11.6793L141.468 11.9643H141.942C142.103 11.9649 142.262 11.9314 142.41 11.8659C142.557 11.8004 142.688 11.7044 142.795 11.5843L142.985 11.2043C143.043 11.0199 143.075 10.8284 143.08 10.6353V9.68629" fill="#BFBFBF"/>
<path d="M149.716 12.7177H148.673L147.44 10.2497H146.302V12.7177H145.449V6.92773H147.725L148.673 7.11773C148.946 7.23817 149.176 7.43604 149.337 7.68673C149.474 7.95011 149.539 8.24441 149.527 8.54073C149.564 8.91179 149.463 9.28334 149.243 9.58473C149.028 9.86219 148.729 10.062 148.39 10.1537L149.716 12.7177ZM148.673 8.63673C148.677 8.51204 148.654 8.38798 148.605 8.27328C148.556 8.15857 148.482 8.05599 148.389 7.97273C148.288 7.87692 148.169 7.80234 148.039 7.75339C147.908 7.70444 147.769 7.68211 147.63 7.68773H146.303V9.48773H147.63C147.769 9.49335 147.908 9.47103 148.039 9.42208C148.169 9.37313 148.288 9.29854 148.389 9.20273C148.482 9.11948 148.556 9.0169 148.605 8.90219C148.654 8.78748 148.677 8.66343 148.673 8.53873" fill="#BFBFBF"/>
<path d="M155.214 12.7177H154.266L153.887 11.5787H151.611L151.232 12.7177H150.284L152.37 6.92773H153.034L155.214 12.7177ZM153.602 10.8177L152.749 8.25473L151.801 10.8177H153.602Z" fill="#BFBFBF"/>
<path d="M102.971 18.3174V19.4564C102.937 19.6851 102.873 19.9083 102.781 20.1204L102.402 20.6894C102.2 20.8807 101.961 21.0296 101.701 21.1273C101.44 21.225 101.163 21.2696 100.885 21.2584H98.7988V15.4704H100.885C101.163 15.4536 101.443 15.4955 101.704 15.5936C101.965 15.6916 102.203 15.8435 102.402 16.0394L102.781 16.6084C102.875 16.8198 102.939 17.0433 102.971 17.2724C102.983 17.5251 102.983 17.7781 102.971 18.0314V18.3174ZM102.118 18.3174V17.5584C102.103 17.3972 102.071 17.2379 102.023 17.0834L101.833 16.7034C101.711 16.576 101.564 16.4761 101.4 16.4106C101.237 16.345 101.061 16.3153 100.885 16.3234H99.8418V20.5944H100.885C101.061 20.6026 101.237 20.5728 101.4 20.5073C101.564 20.4417 101.711 20.3419 101.833 20.2144C101.98 20.0556 102.078 19.8582 102.117 19.6454C102.172 19.2681 102.204 18.8877 102.212 18.5064" fill="#BFBFBF"/>
<path d="M108.093 21.2607H104.393V15.4707H108.093V16.2297H105.249V17.9377H107.619V18.6967H105.249V20.4967H108.093V21.2607Z" fill="#BFBFBF"/>
<path d="M115.013 19.6455C114.998 19.8779 114.934 20.1044 114.823 20.3095L114.349 20.8785L113.685 21.2585H112.832L111.694 21.0685C111.339 20.953 111.015 20.7585 110.746 20.4995L111.315 19.9305L111.789 20.2155L112.263 20.4055H112.832C113.129 20.4333 113.428 20.3668 113.685 20.2155C113.775 20.1423 113.849 20.0517 113.902 19.9491C113.956 19.8465 113.988 19.7342 113.997 19.6188C114.006 19.5034 113.991 19.3874 113.954 19.2779C113.917 19.1683 113.857 19.0675 113.78 18.9815L113.496 18.7915H112.453C112.033 18.7576 111.635 18.5913 111.315 18.3165C111.173 18.1656 111.065 17.9855 111 17.7888C110.934 17.5921 110.913 17.3834 110.936 17.1775C110.924 16.8811 110.99 16.5868 111.126 16.3235C111.291 16.0762 111.521 15.8793 111.79 15.7545L112.833 15.5645L113.876 15.7545L114.635 16.2295L114.066 16.7985L113.687 16.5135H112.265L111.886 16.7985C111.809 16.9443 111.776 17.1093 111.791 17.2735C111.776 17.3765 111.785 17.4818 111.818 17.5806C111.851 17.6794 111.907 17.7691 111.981 17.8425L112.265 18.0325H113.308L113.972 18.2225L114.446 18.5075C114.613 18.6641 114.742 18.8565 114.824 19.0702C114.906 19.2839 114.939 19.5133 114.92 19.7415" fill="#BFBFBF"/>
<path d="M119.848 16.2297H118.236V21.2597H117.383V16.2297H115.771V15.4707H119.848V16.2297Z" fill="#BFBFBF"/>
<path d="M125.252 21.2607H124.304L123.925 20.1217H121.649L121.27 21.2607H120.322L122.408 15.4707H123.072L125.252 21.2607ZM123.64 19.3607L122.787 16.7977L121.839 19.3607H123.64Z" fill="#BFBFBF"/>
<path d="M130.373 21.2607H129.33L128.097 18.7927H127.054V21.2607H126.106V15.4707H128.382L129.33 15.6607C129.603 15.7811 129.834 15.979 129.994 16.2297C130.131 16.4931 130.196 16.7874 130.184 17.0837C130.221 17.4548 130.12 17.8263 129.9 18.1277C129.686 18.4052 129.386 18.6049 129.047 18.6967L130.373 21.2607ZM129.33 17.1797C129.334 17.055 129.311 16.931 129.262 16.8162C129.213 16.7015 129.139 16.599 129.046 16.5157C128.945 16.4199 128.826 16.3453 128.696 16.2964C128.565 16.2474 128.427 16.2251 128.287 16.2307H127.054V18.0307H128.381C128.521 18.0363 128.659 18.014 128.79 17.965C128.92 17.9161 129.039 17.8415 129.14 17.7457C129.233 17.6624 129.307 17.5599 129.356 17.4452C129.405 17.3305 129.428 17.2064 129.424 17.0817" fill="#BFBFBF"/>
<path d="M135.113 16.2297H133.596V21.2597H132.648V16.2297H131.036V15.4707H135.113V16.2297Z" fill="#BFBFBF"/>
<path d="M140.328 19.2707C140.332 19.6382 140.233 19.9995 140.044 20.3147C139.856 20.6004 139.593 20.8298 139.285 20.9787L138.242 21.2637L137.199 20.9787C136.891 20.8296 136.63 20.6002 136.441 20.3147C136.252 19.9995 136.154 19.6383 136.156 19.2707V15.4707H137.009V19.2707C137.017 19.5043 137.082 19.7323 137.199 19.9347L137.578 20.4097L138.242 20.5997L138.906 20.4097L139.285 19.9347C139.402 19.7323 139.467 19.5043 139.475 19.2707V15.4707H140.328V19.2707Z" fill="#BFBFBF"/>
<path d="M145.922 17.1787C145.947 17.5065 145.881 17.8346 145.732 18.1277C145.582 18.41 145.351 18.6411 145.068 18.7917L144.12 18.9817H142.793V21.2607H141.94V15.4707H144.879L145.448 15.8507L145.827 16.4197C145.898 16.6337 145.93 16.8585 145.922 17.0837M145.069 17.0837C145.081 16.9441 145.062 16.8036 145.012 16.6724C144.963 16.5412 144.886 16.4224 144.785 16.3247C144.684 16.2289 144.565 16.1544 144.435 16.1054C144.304 16.0565 144.166 16.0341 144.026 16.0397H142.793V17.9397H144.026C144.166 17.9453 144.304 17.923 144.435 17.8741C144.565 17.8251 144.684 17.7505 144.785 17.6547C144.964 17.4794 145.066 17.2408 145.069 16.9907" fill="#BFBFBF"/>
<path d="M150.664 19.6455C150.65 19.8779 150.585 20.1044 150.474 20.3095L150 20.8785L149.336 21.2585H148.483L147.345 21.0685C146.99 20.953 146.666 20.7585 146.397 20.4995L146.966 19.9305L147.44 20.2155L147.914 20.4055H148.483C148.781 20.4333 149.079 20.3668 149.336 20.2155C149.426 20.1423 149.5 20.0517 149.554 19.9491C149.607 19.8465 149.639 19.7342 149.648 19.6188C149.657 19.5034 149.642 19.3874 149.605 19.2779C149.568 19.1683 149.509 19.0675 149.431 18.9815L149.147 18.7915H148.104C147.684 18.7576 147.286 18.5913 146.966 18.3165C146.824 18.1656 146.717 17.9855 146.651 17.7888C146.586 17.5921 146.564 17.3834 146.587 17.1775C146.576 16.8811 146.641 16.5868 146.777 16.3235C146.942 16.0762 147.172 15.8793 147.441 15.7545L148.484 15.5645L149.527 15.7545L150.286 16.2295L149.717 16.7985L149.338 16.5135H147.916L147.537 16.7985C147.461 16.9443 147.428 17.1093 147.442 17.2735C147.427 17.3765 147.437 17.4818 147.47 17.5806C147.503 17.6794 147.558 17.7691 147.632 17.8425L147.916 18.0325H148.959L149.623 18.2225L150.097 18.5075C150.264 18.6641 150.394 18.8565 150.476 19.0702C150.558 19.2839 150.591 19.5133 150.571 19.7415" fill="#BFBFBF"/>
<path d="M95.3845 5.78906H94.4365V22.8731H95.3845V5.78906Z" fill="#BFBFBF"/>
</g>
<defs>
<clipPath id="clip0_4030_15">
<rect width="155.215" height="27.761" fill="white"/>
</clipPath>
</defs>
</svg>
