<svg width="362" height="476" viewBox="0 0 362 476" fill="none" xmlns="http://www.w3.org/2000/svg">
<g filter="url(#filter0_dddddddd_5_1508)">
<path d="M346.722 177.948C347.567 179.391 352.64 185.659 352.64 185.659C352.64 185.659 352.341 189.34 350.998 194.016C349.606 198.692 350.352 217.745 350.252 222.819C350.103 227.893 338.964 239.881 332.449 245.552C332.15 245.801 331.852 246.05 331.554 246.398C331.206 246.697 330.907 247.045 330.559 247.393C325.586 252.517 317.182 263.61 310.766 273.708C309.026 270.972 307.832 269.182 307.584 268.883C306.39 267.241 304.749 265.401 304.749 265.401C304.749 265.401 301.069 266.844 299.925 266.296C298.831 265.699 296.842 269.43 293.758 266.993C290.725 264.555 293.758 266.993 294.604 265.152C295.449 263.312 299.08 258.735 300.074 255.104C301.069 251.522 299.328 248.537 300.273 247.443C301.218 246.348 305.545 244.757 307.882 237.892C310.269 231.027 300.92 234.857 299.925 234.957C298.881 235.056 286 238.29 281.873 238.737C277.745 239.185 267.55 235.106 263.92 231.027C260.339 226.898 232.043 210.233 231.098 208.293C230.153 206.303 225.976 206.104 225.976 206.104C225.976 206.104 211.952 205.209 208.023 204.264C204.094 203.319 193.153 198.643 184.6 196.802C176.046 194.961 155.458 197.648 153.07 198.245C151.429 198.692 139.892 199.886 133.178 200.533C133.377 200.384 133.526 200.284 133.725 200.185C134.073 199.936 134.421 199.737 134.72 199.588C135.167 199.289 135.565 199.04 135.814 198.891C136.013 198.792 136.112 198.692 136.212 198.643C137.206 198.046 139.494 193.618 140.489 187.002C141.483 180.436 139.842 173.322 139.444 165.363C139.444 164.268 139.245 163.224 138.997 162.179C142.13 160.637 146.158 158.647 147.202 158.548C148.943 158.349 152.623 157.254 153.966 159.891C155.308 162.527 161.276 162.876 161.276 162.876C161.276 162.876 162.569 158.846 164.757 159.493C166.896 160.189 171.371 155.762 173.858 158.448C176.394 161.184 182.561 163.622 183.655 163.821C184.749 164.02 188.429 162.925 191.562 162.925C194.695 162.925 200.066 161.284 203.099 163.373C206.133 165.462 207.526 166.01 207.526 166.01C207.526 166.01 211.255 164.567 214.736 165.214C218.317 165.86 227.318 171.432 230.352 170.785C233.385 170.089 238.309 170.238 238.06 168.149L237.215 160.587C236.867 157.503 235.126 148.499 241.342 147.852C247.509 147.206 250.592 146.808 250.592 146.808C250.592 146.808 253.526 145.116 254.471 144.022C255.366 142.878 260.688 137.406 262.478 137.555C264.218 137.704 267.799 138.699 267.799 138.699C267.799 138.699 268.048 137.903 272.722 136.361C277.447 134.819 282.072 132.929 283.116 132.78C284.16 132.68 290.078 133.028 292.515 135.914C294.902 138.749 296.842 140.291 298.234 140.49C299.627 140.689 301.616 142.53 304.5 140.142C307.335 137.704 312.01 132.68 314.596 130.989C316.684 129.646 325.735 127.258 339.958 128.153C341.152 130.143 343.29 131.884 344.931 133.327C347.418 135.516 349.158 137.008 349.158 137.008C349.158 137.008 342.196 150.837 342.345 153.623C342.494 156.409 343.837 166.855 343.986 168.049C344.136 169.243 345.826 176.556 346.672 177.998L346.722 177.948Z" fill="#EDEDED" stroke="#8C8C9B"/>
<path d="M360.745 97.1121C355.971 102.833 348.561 108.653 346.324 110.842C343.041 113.976 339.56 121.537 339.212 124.87C339.113 126.014 339.411 127.059 340.058 128.103C325.835 127.208 316.784 129.596 314.695 130.939C312.109 132.63 307.434 137.655 304.6 140.092C301.715 142.48 299.776 140.639 298.334 140.44C296.941 140.241 295.002 138.749 292.615 135.864C290.227 132.979 284.26 132.63 283.215 132.73C282.171 132.829 277.546 134.769 272.822 136.311C268.147 137.854 267.898 138.65 267.898 138.65C267.898 138.65 264.318 137.655 262.577 137.505C260.787 137.356 255.515 142.828 254.571 143.972C253.675 145.116 250.692 146.758 250.692 146.758C250.692 146.758 247.608 147.156 241.442 147.803C235.225 148.4 236.966 157.453 237.314 160.538L238.159 168.099C238.408 170.138 233.485 170.039 230.451 170.735C227.418 171.432 218.416 165.811 214.836 165.164C211.305 164.517 207.625 165.96 207.625 165.96C207.625 165.96 206.183 165.413 203.199 163.323C200.165 161.234 194.794 162.876 191.661 162.876C188.528 162.876 184.848 163.97 183.754 163.771C182.66 163.572 176.494 161.085 173.957 158.398C171.421 155.712 166.945 160.09 164.857 159.443C162.668 158.796 161.375 162.826 161.375 162.826C161.375 162.826 155.457 162.478 154.065 159.841C152.722 157.205 149.042 158.299 147.302 158.498C146.307 158.597 142.229 160.587 139.096 162.129C137.704 155.563 133.327 150.34 133.327 150.34C133.327 150.34 127.012 137.505 125.818 134.67C124.624 131.834 122.735 132.033 121.094 131.387C119.452 130.69 112.192 131.188 109.109 131.536C106.025 131.884 105.329 133.377 100.406 134.769C95.532 136.162 96.7256 133.078 96.825 132.531C96.9245 131.984 98.9635 125.517 99.7591 124.373C100.505 123.228 101.45 116.165 101.45 111.489C101.45 106.763 101.45 100.694 104.434 94.6248C107.418 88.5559 103.738 82.1884 102.793 79.8504C101.848 77.5124 100.853 73.284 99.9581 71.7916C99.9581 71.7916 104.086 71.145 107.915 68.2597C111.744 65.4242 110.65 64.4791 111.247 60.8974C111.893 57.3655 111.247 54.6792 111.794 50.0529C112.291 45.4763 115.872 45.7748 118.707 43.3373C121.541 40.9495 119.95 39.0094 119.801 37.6663C119.651 36.3232 120.895 28.5131 122.635 25.8766C124.475 23.2401 132.88 14.9824 136.759 12.0971C137.057 11.8484 137.455 11.5499 137.903 11.1022C138.151 10.9032 138.4 10.6048 138.698 10.356C138.997 10.1073 139.295 9.80883 139.593 9.51036C139.643 9.51036 139.693 9.41087 139.743 9.31137C140.19 8.91341 140.687 8.41596 141.185 7.9185C141.483 7.66978 141.732 7.3713 141.98 7.12258L154.91 6.92359C154.91 6.92359 166 6.72461 170.476 6.22716C174.952 5.7297 180.621 3.34192 180.621 3.34192C180.621 3.34192 182.809 1.3521 185.544 1.05363C188.28 0.755159 194.347 1.79981 194.347 1.79981L205.735 3.98861C205.735 3.98861 229.506 5.13276 231.048 4.98352C232.59 4.83429 236.369 9.60985 236.369 9.60985L251.089 11.7489C251.089 11.7489 260.787 8.61494 263.373 6.57538C265.909 4.58556 274.264 7.42105 276.402 8.21698C278.59 9.0129 286.05 19.6584 288.537 23.1904C290.973 26.7223 289.68 33.4877 289.979 35.9252C290.227 38.313 292.913 43.586 294.554 45.8245C296.195 48.1128 301.317 53.4356 304.202 55.5249C307.086 57.6639 306.34 60.4994 306.539 62.539C306.788 64.6283 306.042 67.5135 305.843 68.9064C305.644 70.2993 306.44 74.0799 306.44 74.0799C306.44 74.0799 317.878 73.7815 318.823 73.0353C319.767 72.1896 328.421 71.9409 331.902 71.5429C335.333 71.145 336.974 73.3835 336.974 73.3835C336.974 73.3835 338.218 84.3772 338.615 87.8097C339.013 91.2421 341.798 82.2382 341.798 82.2382C341.798 82.2382 348.661 81.4423 350.75 81.2433C352.789 80.9946 354.38 91.9883 356.916 93.0827C358.358 93.6796 359.751 95.6197 360.646 97.1121H360.745Z" fill="#EDEDED" stroke="#8C8C9B"/>
<path d="M300.273 247.393C299.328 248.537 301.069 251.472 300.074 255.054C299.08 258.636 295.449 263.212 294.604 265.102C293.758 266.943 290.725 264.505 293.758 266.943C296.792 269.381 298.831 265.699 299.925 266.247C301.069 266.794 304.749 265.351 304.749 265.351C304.749 265.351 306.34 267.241 307.584 268.833C307.832 269.132 308.976 270.923 310.766 273.659C309.772 275.151 308.926 276.643 308.031 278.086C307.683 278.633 307.385 279.23 307.086 279.728C305.246 282.961 303.754 285.896 302.859 288.284C298.433 300.073 280.232 343.75 277.845 349.073C275.507 354.396 259.792 370.762 252.681 375.736C247.708 379.218 242.337 382.949 237.961 387.178C233.734 391.207 233.137 397.624 228.711 401.952C226.324 404.29 223.489 406.18 221.45 408.817C217.82 413.493 217.124 419.761 215.88 425.581C214.189 433.441 211.802 443.34 206.78 449.857C204.741 452.493 201.707 453.289 199.32 455.677C195.59 459.309 189.374 470.899 183.456 469.855C177.488 468.81 177.687 461.249 176.643 456.871C175.051 450.404 175.797 449.161 177.041 444.982C178.284 440.853 181.765 440.654 182.959 438.764C184.152 436.873 188.329 433.839 190.07 430.655C191.811 427.521 187.235 423.84 185.246 422C183.307 420.109 177.041 420.159 174.156 419.065C171.272 418.02 168.537 413.941 168.238 411.056C167.89 408.121 163.365 404.788 159.535 401.753C155.756 398.719 151.38 395.386 151.38 395.386C151.38 395.386 141.483 394.043 135.963 388.222C130.443 382.402 130.393 383.298 128.702 382.75C127.061 382.253 119.801 380.96 115.623 377.975C111.496 374.94 111.148 376.731 104.633 374.692C98.1181 372.652 98.516 372.602 92.3991 367.877C86.2822 363.2 83.7957 359.818 80.3146 358.077C76.8334 356.385 76.7837 360.763 76.3858 364.991C75.988 369.22 69.3241 370.314 67.3846 368.424C65.4451 366.533 64.2018 361.808 61.5661 358.475C58.9304 355.142 49.1335 347.033 45.5529 342.855C41.9722 338.726 34.811 336.736 28.4455 334.348C22.08 331.96 18.8972 336.139 17.4053 338.228C15.9134 340.268 5.91755 344.397 3.03317 343.153C0.0990641 341.909 0.695832 340.815 2.5856 337.482C4.47536 334.149 21.6822 309.426 26.9039 303.108C32.0759 296.741 46.995 274.554 49.6805 271.818C52.3162 269.082 55.8968 263.809 58.2342 261.272C60.5218 258.735 64.2516 260.775 65.5943 258.685C66.937 256.596 61.3175 257.989 66.8873 251.572C72.4074 245.204 81.16 237.792 90.8077 229.236C100.455 220.68 108.711 215.208 110.004 214.362C111.297 213.516 122.884 209.785 125.818 206.502C127.459 204.662 130.344 202.572 132.731 200.981C132.979 200.831 133.228 200.632 133.526 200.483C140.24 199.787 151.777 198.643 153.419 198.195C155.806 197.598 176.394 194.961 184.948 196.752C193.501 198.593 204.442 203.219 208.371 204.214C212.3 205.159 226.324 206.055 226.324 206.055C226.324 206.055 230.501 206.254 231.446 208.243C232.341 210.183 260.688 226.848 264.268 230.977C267.898 235.106 278.093 239.185 282.221 238.688C286.349 238.24 299.229 235.006 300.273 234.907C301.268 234.807 310.617 230.977 308.23 237.842C305.893 244.757 301.566 246.299 300.621 247.393H300.273Z" fill="#EDEDED" stroke="#8C8C9B"/>
</g>
<defs>
<filter id="filter0_dddddddd_5_1508" x="0.5" y="0.500122" width="361.314" height="474.921" filterUnits="userSpaceOnUse" color-interpolation-filters="sRGB">
<feFlood flood-opacity="0" result="BackgroundImageFix"/>
<feColorMatrix in="SourceAlpha" type="matrix" values="0 0 0 0 0 0 0 0 0 0 0 0 0 0 0 0 0 0 127 0" result="hardAlpha"/>
<feOffset dy="5"/>
<feComposite in2="hardAlpha" operator="out"/>
<feColorMatrix type="matrix" values="0 0 0 0 0.54902 0 0 0 0 0.54902 0 0 0 0 0.607843 0 0 0 1 0"/>
<feBlend mode="normal" in2="BackgroundImageFix" result="effect1_dropShadow_5_1508"/>
<feColorMatrix in="SourceAlpha" type="matrix" values="0 0 0 0 0 0 0 0 0 0 0 0 0 0 0 0 0 0 127 0" result="hardAlpha"/>
<feOffset dy="4.5"/>
<feComposite in2="hardAlpha" operator="out"/>
<feColorMatrix type="matrix" values="0 0 0 0 0.54902 0 0 0 0 0.54902 0 0 0 0 0.607843 0 0 0 1 0"/>
<feBlend mode="normal" in2="effect1_dropShadow_5_1508" result="effect2_dropShadow_5_1508"/>
<feColorMatrix in="SourceAlpha" type="matrix" values="0 0 0 0 0 0 0 0 0 0 0 0 0 0 0 0 0 0 127 0" result="hardAlpha"/>
<feOffset dy="4"/>
<feComposite in2="hardAlpha" operator="out"/>
<feColorMatrix type="matrix" values="0 0 0 0 0.54902 0 0 0 0 0.54902 0 0 0 0 0.607843 0 0 0 1 0"/>
<feBlend mode="normal" in2="effect2_dropShadow_5_1508" result="effect3_dropShadow_5_1508"/>
<feColorMatrix in="SourceAlpha" type="matrix" values="0 0 0 0 0 0 0 0 0 0 0 0 0 0 0 0 0 0 127 0" result="hardAlpha"/>
<feOffset dy="3.5"/>
<feComposite in2="hardAlpha" operator="out"/>
<feColorMatrix type="matrix" values="0 0 0 0 0.54902 0 0 0 0 0.54902 0 0 0 0 0.607843 0 0 0 1 0"/>
<feBlend mode="normal" in2="effect3_dropShadow_5_1508" result="effect4_dropShadow_5_1508"/>
<feColorMatrix in="SourceAlpha" type="matrix" values="0 0 0 0 0 0 0 0 0 0 0 0 0 0 0 0 0 0 127 0" result="hardAlpha"/>
<feOffset dy="3"/>
<feComposite in2="hardAlpha" operator="out"/>
<feColorMatrix type="matrix" values="0 0 0 0 0.54902 0 0 0 0 0.54902 0 0 0 0 0.607843 0 0 0 1 0"/>
<feBlend mode="normal" in2="effect4_dropShadow_5_1508" result="effect5_dropShadow_5_1508"/>
<feColorMatrix in="SourceAlpha" type="matrix" values="0 0 0 0 0 0 0 0 0 0 0 0 0 0 0 0 0 0 127 0" result="hardAlpha"/>
<feOffset dy="2.5"/>
<feComposite in2="hardAlpha" operator="out"/>
<feColorMatrix type="matrix" values="0 0 0 0 0.54902 0 0 0 0 0.54902 0 0 0 0 0.607843 0 0 0 1 0"/>
<feBlend mode="normal" in2="effect5_dropShadow_5_1508" result="effect6_dropShadow_5_1508"/>
<feColorMatrix in="SourceAlpha" type="matrix" values="0 0 0 0 0 0 0 0 0 0 0 0 0 0 0 0 0 0 127 0" result="hardAlpha"/>
<feOffset dy="2"/>
<feComposite in2="hardAlpha" operator="out"/>
<feColorMatrix type="matrix" values="0 0 0 0 0.54902 0 0 0 0 0.54902 0 0 0 0 0.607843 0 0 0 1 0"/>
<feBlend mode="normal" in2="effect6_dropShadow_5_1508" result="effect7_dropShadow_5_1508"/>
<feColorMatrix in="SourceAlpha" type="matrix" values="0 0 0 0 0 0 0 0 0 0 0 0 0 0 0 0 0 0 127 0" result="hardAlpha"/>
<feOffset dy="1.5"/>
<feComposite in2="hardAlpha" operator="out"/>
<feColorMatrix type="matrix" values="0 0 0 0 0.54902 0 0 0 0 0.54902 0 0 0 0 0.607843 0 0 0 1 0"/>
<feBlend mode="normal" in2="effect7_dropShadow_5_1508" result="effect8_dropShadow_5_1508"/>
<feBlend mode="normal" in="SourceGraphic" in2="effect8_dropShadow_5_1508" result="shape"/>
</filter>
</defs>
</svg>
