<svg width="36" height="36" viewBox="0 0 36 36" fill="none" xmlns="http://www.w3.org/2000/svg">
<path d="M26.9086 18.893C26.8945 16.3125 28.0617 14.3648 30.4242 12.9305C29.1023 11.0391 27.1055 9.99844 24.4688 9.79453C21.9727 9.59766 19.2445 11.25 18.2461 11.25C17.1914 11.25 14.7727 9.86484 12.8742 9.86484C8.95078 9.92813 4.78125 12.9938 4.78125 19.2305C4.78125 21.0727 5.11875 22.9758 5.79375 24.9398C6.69375 27.5203 9.94219 33.8484 13.3313 33.743C15.1031 33.7008 16.3547 32.4844 18.6609 32.4844C20.8969 32.4844 22.057 33.743 24.0328 33.743C27.45 33.6938 30.3891 27.9422 31.2469 25.3547C26.6625 23.1961 26.9086 19.0266 26.9086 18.893ZM22.9289 7.34766C24.8484 5.06953 24.6727 2.99531 24.6164 2.25C22.9219 2.34844 20.9602 3.40313 19.8422 4.70391C18.6117 6.09609 17.8875 7.81875 18.0422 9.75938C19.8773 9.9 21.5508 8.95781 22.9289 7.34766Z" fill="white"/>
</svg>
