<svg width="48" height="48" viewBox="0 0 48 48" fill="none" xmlns="http://www.w3.org/2000/svg">
<path d="M14 26V44C14 44.5304 13.7893 45.0391 13.4142 45.4142C13.0391 45.7893 12.5304 46 12 46H4C3.46957 46 2.96086 45.7893 2.58579 45.4142C2.21071 45.0391 2 44.5304 2 44V26C2 25.4696 2.21071 24.9609 2.58579 24.5858C2.96086 24.2107 3.46957 24 4 24H12C12.5304 24 13.0391 24.2107 13.4142 24.5858C13.7893 24.9609 14 25.4696 14 26ZM28 2H20C19.4696 2 18.9609 2.21071 18.5858 2.58579C18.2107 2.96086 18 3.46957 18 4V44C18 44.5304 18.2107 45.0391 18.5858 45.4142C18.9609 45.7893 19.4696 46 20 46H28C28.5304 46 29.0391 45.7893 29.4142 45.4142C29.7893 45.0391 30 44.5304 30 44V4C30 3.46957 29.7893 2.96086 29.4142 2.58579C29.0391 2.21071 28.5304 2 28 2ZM44 12H36C35.4696 12 34.9609 12.2107 34.5858 12.5858C34.2107 12.9609 34 13.4696 34 14V44C34 44.5304 34.2107 45.0391 34.5858 45.4142C34.9609 45.7893 35.4696 46 36 46H44C44.5304 46 45.0391 45.7893 45.4142 45.4142C45.7893 45.0391 46 44.5304 46 44V14C46 13.4696 45.7893 12.9609 45.4142 12.5858C45.0391 12.2107 44.5304 12 44 12Z" fill="white"/>
</svg>
