<svg width="32" height="32" viewBox="0 0 32 32" fill="none" xmlns="http://www.w3.org/2000/svg">
<g clip-path="url(#clip0_559_117)">
<path d="M16 0C7.21191 0 0 7.21191 0 16C0 23.4993 5.26221 30.3115 12.25 32V26.7065C11.5576 26.8582 10.9204 26.8625 10.2156 26.6548C9.27002 26.3757 8.50171 25.7458 7.9314 24.7854C7.56787 24.1721 6.92358 23.5071 6.25146 23.5559L6.08667 21.6882C7.54004 21.5637 8.79736 22.5737 9.5437 23.8276C9.87524 24.3853 10.2568 24.7122 10.7466 24.8567C11.22 24.9961 11.7283 24.9292 12.3206 24.72C12.4692 23.5342 13.0125 23.0903 13.4229 22.4653V22.4644C9.25537 21.8428 7.59448 19.6318 6.9353 17.8867C6.06177 15.5696 6.53052 12.6748 8.0752 10.8455C8.10522 10.8098 8.15942 10.7166 8.13843 10.6514C7.43018 8.51196 8.29321 6.74219 8.32495 6.55444C9.14233 6.79614 9.27515 6.31128 11.8755 7.89111L12.325 8.16113C12.5129 8.27319 12.4539 8.20923 12.6418 8.19507C13.7275 7.90015 14.8721 7.7373 15.9998 7.72266C17.136 7.7373 18.2732 7.90015 19.4038 8.20703L19.5493 8.22168C19.5366 8.21973 19.5889 8.2124 19.6765 8.16016C22.9248 6.19263 22.8081 6.83569 23.6792 6.55249C23.7107 6.74048 24.5623 8.53906 23.8616 10.6514C23.7671 10.9424 26.6777 13.6077 25.0645 17.886C24.4053 19.6318 22.7446 21.8428 18.5771 22.4644V22.4653C19.1113 23.2795 19.7532 23.7126 19.7498 25.3923V32C26.7378 30.3115 31.9998 23.4993 31.9998 16C32 7.21191 24.7881 0 16 0Z" fill="white"/>
</g>
<defs>
<clipPath id="clip0_559_117">
<rect width="32" height="32" fill="white"/>
</clipPath>
</defs>
</svg>
