<svg width="64" height="64" viewBox="0 0 64 64" fill="none" xmlns="http://www.w3.org/2000/svg">
<g id="fi_2597085" clip-path="url(#clip0_159_783)">
<g id="XMLID_2112_">
<g id="XMLID_428_">
<path id="XMLID_760_" d="M54.3728 35.0846C54.3675 32.9439 53.8631 30.84 52.9012 28.9302L55.1104 26.721C56.7666 25.0648 56.7666 22.3697 55.1104 20.7134C54.2843 19.8872 53.1998 19.4734 52.1146 19.4714C52.1131 18.3389 51.6715 17.2746 50.8706 16.4736C50.044 15.6471 48.9587 15.2331 47.8728 15.2316C47.8713 14.1457 47.4573 13.0604 46.6307 12.2338C45.8302 11.4334 44.7665 10.9918 43.6349 10.9898C43.6328 9.85819 43.1913 8.79447 42.3909 7.99398C41.5885 7.19162 40.5217 6.74976 39.3871 6.74976C38.2525 6.74976 37.1856 7.19162 36.3834 7.99398L32.0015 12.3759L29.5633 9.93757C28.7609 9.13521 27.6942 8.69334 26.5595 8.69334C25.4247 8.69334 24.358 9.13521 23.5558 9.93757C22.7548 10.7386 22.3133 11.8029 22.3117 12.9354C21.2266 12.9374 20.142 13.3513 19.3159 14.1774C18.5154 14.9778 18.0739 16.0415 18.0718 17.1732C16.9401 17.1753 15.8764 17.6168 15.0759 18.4173C13.7082 19.785 13.4712 21.8606 14.3623 23.4752C13.7486 23.6758 13.1715 24.0184 12.6845 24.5054C11.0283 26.1618 11.0283 28.8567 12.6845 30.513L14.4538 32.2824L0.396848 46.3394C-0.0912671 46.8275 -0.0912671 47.619 0.396848 48.1072C0.640969 48.3512 0.960837 48.4733 1.28071 48.4733C1.60057 48.4733 1.92057 48.3512 2.16456 48.1072L11.6936 38.5781L20.6201 47.5046L6.32236 61.8023C5.83424 62.2904 5.83424 63.0819 6.32236 63.5701C6.56648 63.8141 6.88635 63.9363 7.20622 63.9363C7.52608 63.9363 7.84608 63.8141 8.09007 63.5701L27.4152 44.245C27.7712 43.889 28.1764 43.6005 28.6149 43.3835L31.6394 45.3756C33.6397 46.6931 36.0785 47.2078 38.4299 46.8271L55.2367 63.6339C55.4808 63.8779 55.8006 64 56.1205 64C56.4404 64 56.7604 63.8779 57.0044 63.6339C57.4925 63.1458 57.4925 62.3543 57.0044 61.8661L47.2528 52.1145L48.4317 50.9356C48.9198 50.4475 48.9198 49.656 48.4317 49.1678C47.9435 48.6798 47.1521 48.6798 46.6638 49.1678L45.485 50.3467L42.7249 47.5866L53.0319 37.2794L55.7921 40.0396L54.6159 41.2158C54.1278 41.7041 54.1278 42.4954 54.6159 42.9837C54.86 43.2277 55.1799 43.3498 55.4998 43.3498C55.8196 43.3498 56.1396 43.2277 56.3836 42.9837L57.5599 41.8074L61.8654 46.113C62.1095 46.357 62.4294 46.4791 62.7493 46.4791C63.0691 46.4791 63.3891 46.357 63.6331 46.113C64.1212 45.6249 64.1212 44.8334 63.6331 44.3451L54.3728 35.0846ZM38.1511 9.7617C38.4812 9.43158 38.9202 9.24971 39.3871 9.24971C39.854 9.24971 40.2929 9.43158 40.6231 9.7617C40.9533 10.0918 41.1351 10.5308 41.1351 10.9977C41.1351 11.4647 40.9532 11.9037 40.6231 12.2338L37.8762 14.9806C37.3881 15.4687 37.3881 16.2602 37.8762 16.7484C38.3644 17.2367 39.1558 17.2366 39.6441 16.7484L42.3909 14.0016C42.721 13.6714 43.16 13.4896 43.627 13.4896C44.0939 13.4896 44.5329 13.6715 44.863 14.0016C45.5446 14.6832 45.5446 15.7921 44.863 16.4737L40.6686 20.6681C40.1804 21.1562 40.1804 21.9477 40.6686 22.4359C40.9127 22.6801 41.2326 22.8021 41.5524 22.8021C41.8723 22.8021 42.1923 22.6801 42.4363 22.4359L46.6307 18.2415C46.9608 17.9113 47.3998 17.7295 47.8667 17.7295C48.3337 17.7295 48.7727 17.9114 49.1028 18.2415C49.4329 18.5717 49.6148 19.0106 49.6148 19.4775C49.6148 19.9444 49.4329 20.3834 49.1028 20.7135L44.9084 24.9079C44.4202 25.396 44.4202 26.1875 44.9084 26.6757C45.1525 26.9199 45.4723 27.0419 45.7922 27.0419C46.1121 27.0419 46.4321 26.9199 46.6761 26.6757L50.8704 22.4813C51.5518 21.7997 52.661 21.7998 53.3424 22.4813C54.0241 23.1629 54.0241 24.2719 53.3424 24.9534L43.0106 35.2852C39.7027 38.5933 35.3045 40.4151 30.6261 40.4151C29.3593 40.4151 28.1441 40.7487 27.0788 41.3721L19.8438 34.1371C20.4006 33.9268 20.9116 33.5997 21.3451 33.1662C22.146 32.3653 22.5875 31.3009 22.5892 30.1684C23.6743 30.1664 24.7589 29.7524 25.585 28.9263C26.4111 28.1002 26.825 27.0157 26.827 25.9305C27.9594 25.929 29.0239 25.4874 29.8248 24.6864C30.6509 23.8603 31.0647 22.7758 31.0667 21.6906C32.1992 21.6891 33.2636 21.2475 34.0644 20.4466C34.8668 19.6443 35.3087 18.5775 35.3087 17.4428C35.3087 16.3081 34.8668 15.2413 34.0644 14.439L33.7688 14.1434L38.1511 9.7617ZM25.3235 11.7053C25.6536 11.3752 26.0926 11.1933 26.5595 11.1933C27.0263 11.1933 27.4653 11.3752 27.7954 11.7053L32.2971 16.2068C32.6272 16.5369 32.8091 16.9759 32.8091 17.4428C32.8091 17.9097 32.6272 18.3487 32.2971 18.6789C31.967 19.009 31.528 19.1909 31.0611 19.1909C30.5944 19.1909 30.1556 19.0091 29.8255 18.6793C29.8254 18.6791 29.8253 18.679 29.8251 18.6788L25.3235 14.1772C24.9934 13.8471 24.8115 13.4081 24.8115 12.9413C24.8115 12.4744 24.9932 12.0355 25.3235 11.7053ZM21.0836 15.9451C21.4244 15.6042 21.8719 15.434 22.3197 15.434C22.7673 15.434 23.215 15.6043 23.5556 15.9451L28.0572 20.4466C28.7388 21.1282 28.7387 22.2372 28.0572 22.9188C27.7271 23.2489 27.2881 23.4308 26.8212 23.4308C26.3545 23.4308 25.9157 23.2491 25.5856 22.9192C25.5855 22.9191 25.5854 22.9189 25.5852 22.9187L21.0837 18.4172C20.7534 18.087 20.5717 17.648 20.5717 17.1811C20.5716 16.7142 20.7535 16.2753 21.0836 15.9451ZM16.8438 20.185C17.1739 19.8547 17.6129 19.673 18.0798 19.673C18.5467 19.673 18.9857 19.8549 19.3159 20.185L23.8174 24.6865C24.499 25.3681 24.499 26.4771 23.8174 27.1586C23.1358 27.8401 22.0268 27.8402 21.3452 27.1586L16.8437 22.6571C16.1622 21.9756 16.1622 20.8665 16.8438 20.185ZM14.4522 26.2731C14.7931 25.9323 15.2407 25.762 15.6883 25.762C16.1353 25.762 16.5825 25.9321 16.923 26.272L19.5775 28.9264C19.9076 29.2566 20.0895 29.6956 20.0895 30.1624C20.0895 30.6293 19.9076 31.0683 19.5775 31.3985C19.2474 31.7288 18.8084 31.9105 18.3414 31.9105C17.8749 31.9105 17.4361 31.7289 17.106 31.3991L17.1054 31.3985L14.4522 28.7453C13.7707 28.0636 13.7707 26.9546 14.4522 26.2731ZM13.4615 36.8103L16.2217 34.0501L25.1482 42.9765L22.388 45.7367L13.4615 36.8103ZM39.725 44.5865C39.4171 44.2788 38.9713 44.1526 38.5484 44.2553C36.6565 44.7106 34.6396 44.3581 33.0146 43.2878L32.3376 42.8418C37.0381 42.4463 41.4048 40.4268 44.7786 37.0529L51.0167 30.8149C51.5533 32.1118 51.8428 33.4979 51.8695 34.9068L40.9574 45.819L39.725 44.5865Z" fill="white"/>
<path id="XMLID_805_" d="M50.6385 45.1934C50.406 45.4259 50.2722 45.7471 50.2722 46.0771C50.2722 46.4059 50.406 46.7284 50.6385 46.9608C50.871 47.1933 51.1935 47.3271 51.5222 47.3271C51.8522 47.3271 52.1735 47.1934 52.406 46.9608C52.6385 46.7284 52.7722 46.4059 52.7722 46.0771C52.7722 45.747 52.6385 45.4259 52.406 45.1934C52.1735 44.9609 51.851 44.8271 51.5222 44.8271C51.1935 44.8271 50.871 44.9609 50.6385 45.1934Z" fill="white"/>
<path id="XMLID_809_" d="M8.44533 10.2123C8.68945 10.4564 9.00932 10.5784 9.32919 10.5784C9.64906 10.5784 9.96905 10.4564 10.213 10.2123C10.7012 9.72415 10.7012 8.93267 10.213 8.44443L4.32929 2.56067C3.84117 2.07255 3.04969 2.07255 2.56145 2.56067C2.07321 3.04878 2.07333 3.84027 2.56145 4.32851L8.44533 10.2123Z" fill="white"/>
<path id="XMLID_858_" d="M15.2505 6.81437C15.9408 6.81437 16.5004 6.25475 16.5004 5.56439V1.24998C16.5004 0.559614 15.9408 0 15.2505 0C14.5601 0 14.0005 0.559614 14.0005 1.24998V5.56439C14.0005 6.25475 14.5601 6.81437 15.2505 6.81437Z" fill="white"/>
<path id="XMLID_1014_" d="M1.25071 16.4997H5.56512C6.25549 16.4997 6.8151 15.9401 6.8151 15.2497C6.8151 14.5594 6.25549 13.9998 5.56512 13.9998H1.25071C0.560346 13.9998 0.000732422 14.5594 0.000732422 15.2497C0.000732422 15.9401 0.560346 16.4997 1.25071 16.4997Z" fill="white"/>
<path id="XMLID_1020_" d="M54.671 10.5784C54.9908 10.5784 55.3108 10.4564 55.5548 10.2123L61.4386 4.32855C61.9267 3.84044 61.9267 3.04895 61.4386 2.56071C60.9505 2.07247 60.159 2.0726 59.6707 2.56071L53.787 8.44447C53.2989 8.93259 53.2989 9.72407 53.787 10.2123C54.0312 10.4564 54.3511 10.5784 54.671 10.5784Z" fill="white"/>
<path id="XMLID_1029_" d="M48.7497 6.81437C49.4401 6.81437 49.9997 6.25475 49.9997 5.56439V1.24998C49.9997 0.559614 49.4401 0 48.7497 0C48.0594 0 47.4998 0.559614 47.4998 1.24998V5.56439C47.4998 6.25475 48.0594 6.81437 48.7497 6.81437Z" fill="white"/>
<path id="XMLID_1030_" d="M57.1853 15.2497C57.1853 15.9401 57.7449 16.4997 58.4353 16.4997H62.7497C63.4401 16.4997 63.9997 15.9401 63.9997 15.2497C63.9997 14.5594 63.4401 13.9998 62.7497 13.9998H58.4353C57.7449 13.9998 57.1853 14.5594 57.1853 15.2497Z" fill="white"/>
</g>
</g>
</g>
<defs>
<clipPath id="clip0_159_783">
<rect width="64" height="64" fill="white"/>
</clipPath>
</defs>
</svg>
