<svg width="68" height="68" viewBox="0 0 68 68" fill="none" xmlns="http://www.w3.org/2000/svg">
<g clip-path="url(#clip0_119_1414)">
<path d="M38.4714 22.7761C38.718 22.7761 38.9593 22.6766 39.1343 22.5016C39.3087 22.3273 39.4088 22.0853 39.4087 21.8388C39.4087 21.5922 39.3087 21.3502 39.1343 21.1758C38.96 21.0015 38.718 20.9014 38.4714 20.9014C38.2248 20.9014 37.9829 21.0015 37.8085 21.1758C37.6334 21.3509 37.5341 21.5921 37.5341 21.8387C37.5334 22.086 37.6342 22.3273 37.8085 22.5016C37.9829 22.676 38.2242 22.7767 38.4714 22.7761Z" fill="#FA475C"/>
<path d="M25.4797 20.1072C25.2331 20.1072 24.9912 20.2073 24.8168 20.3816C24.6417 20.5567 24.5417 20.7987 24.5424 21.0445C24.5424 21.2911 24.6425 21.5331 24.8168 21.7074C24.9918 21.8825 25.2331 21.982 25.4797 21.9819C25.727 21.9826 25.9676 21.8825 26.1426 21.7074C26.317 21.5331 26.4178 21.2918 26.417 21.0446C26.417 20.798 26.3177 20.5566 26.1426 20.3816C25.9683 20.2073 25.7263 20.1072 25.4797 20.1072Z" fill="#FA475C"/>
<path d="M45.8881 41.7341L45.0926 42.5296L44.3732 41.8102C44.2848 41.3309 44.1785 40.8547 44.0586 40.3816L49.4608 34.9795C50.4193 34.0209 50.4193 32.4611 49.4608 31.5025L42.1174 24.1591C41.7512 23.793 41.1576 23.793 40.7915 24.1591C40.4255 24.5252 40.4254 25.1188 40.7915 25.4849L45.6898 30.3832C44.495 32.0932 44.495 34.3887 45.6897 36.0988L43.4409 38.3476C42.7587 36.4344 41.8193 34.6109 40.6538 32.9548L38.6756 30.1438C38.5665 29.9889 38.4461 29.8462 38.3159 29.716C38.1334 29.5335 37.9315 29.3764 37.716 29.2447C38.1623 27.4054 37.6323 25.418 36.2622 24.0479C34.1174 21.9031 30.6276 21.9032 28.4828 24.0479C26.338 26.1927 26.338 29.6826 28.4828 31.8274C29.696 33.0405 31.3788 33.6042 33.0442 33.3981L34.4278 38.2056C34.5293 38.5582 34.4311 38.9385 34.1718 39.1979C33.7784 39.5912 33.1386 39.5912 32.7453 39.1979L19.0474 25.5C20.2422 23.79 20.2422 21.4945 19.0475 19.7844L24.2114 14.6205C25.9214 15.8152 28.2169 15.8152 29.927 14.6204L34.8253 19.5187C35.1914 19.8848 35.7851 19.8848 36.1511 19.5187C36.5172 19.1527 36.5173 18.559 36.1511 18.1929L28.8077 10.8495C27.8492 9.89091 26.2893 9.89091 25.3308 10.8495L15.2766 20.9037C14.3179 21.8623 14.3179 23.4222 15.2765 24.3807L23.985 33.0892L24.7427 38.9523C24.9393 40.4735 25.6449 41.9086 26.7296 42.9933L35.6793 51.943L35.2815 52.3407C34.9155 52.7068 34.9154 53.3004 35.2815 53.6665L41.1152 59.5002C41.4813 59.8663 42.0749 59.8662 42.441 59.5002L53.0476 48.8936C53.4137 48.5275 53.4137 47.9339 53.0476 47.5677L47.214 41.7341C46.8478 41.368 46.2542 41.3681 45.8881 41.7341ZM47.0491 31.7426L48.1349 32.8284C48.3625 33.056 48.3625 33.4262 48.1349 33.6537L47.0491 34.7395C46.5399 33.8093 46.5399 32.6729 47.0491 31.7426ZM29.8087 30.5016C28.3949 29.0879 28.3949 26.7876 29.8086 25.3739C31.2223 23.9602 33.5226 23.9602 34.9364 25.3739C35.8321 26.2696 36.1828 27.5655 35.9016 28.7694C35.4871 28.7844 35.0703 28.8787 34.674 29.0597C33.6563 29.5245 32.9787 30.4781 32.8169 31.535C31.7185 31.6711 30.6085 31.3015 29.8087 30.5016ZM27.4818 12.1754L28.5676 13.2612C27.6374 13.7703 26.501 13.7703 25.5707 13.2612L26.6565 12.1754C26.8841 11.9478 27.2543 11.9478 27.4818 12.1754ZM16.6024 22.2295L17.6881 21.1438C18.1973 22.0741 18.1973 23.2104 17.6881 24.1407L16.6023 23.0549C16.3747 22.8273 16.3748 22.4571 16.6024 22.2295ZM28.0554 41.6674C27.2621 40.8742 26.7461 39.8247 26.6023 38.7121L26.1562 35.2604L31.4195 40.5237C32.5438 41.648 34.3732 41.6481 35.4976 40.5237C36.2392 39.7821 36.5197 38.6952 36.2298 37.6872L34.7054 32.3904C34.5192 31.7436 34.8406 31.045 35.4528 30.7653C36.0524 30.4916 36.763 30.684 37.1423 31.223L39.1205 34.0341C40.8715 36.5221 42.067 39.4225 42.5775 42.4217C42.6101 42.6132 42.7014 42.7899 42.8388 42.9273L43.7669 43.8554L37.0051 50.6171L28.0554 41.6674ZM46.551 43.7229L51.0589 48.2307L41.7781 57.5114L37.2703 53.0036L46.551 43.7229Z" fill="#FA475C"/>
</g>
<defs>
<clipPath id="clip0_119_1414">
<rect width="48" height="48" fill="white" transform="translate(34 67.9412) rotate(-135)"/>
</clipPath>
</defs>
</svg>
