<svg width="36" height="36" viewBox="0 0 36 36" fill="none" xmlns="http://www.w3.org/2000/svg">
<path fill-rule="evenodd" clip-rule="evenodd" d="M10.1088 5.6734C12.2017 3.58052 15.0403 2.40466 18.0001 2.40466C20.9599 2.40466 23.7985 3.58051 25.8914 5.6734C27.9843 7.76631 29.1601 10.6049 29.1601 13.5647V22.2046C29.1601 25.1644 27.9843 28.0032 25.8914 30.0961C23.7985 32.189 20.9599 33.3645 18.0001 33.3645C15.0403 33.3645 12.2018 32.189 10.1088 30.0961C8.01593 28.0032 6.84009 25.1645 6.84009 22.2046V13.5647C6.84009 10.6048 8.01595 7.7663 10.1088 5.6734ZM18.0001 4.56466C15.6131 4.56466 13.324 5.51292 11.6362 7.20077C9.94834 8.88861 9.00009 11.1777 9.00009 13.5647V22.2046C9.00009 24.5916 9.94836 26.8809 11.6362 28.5687C13.324 30.2565 15.613 31.2045 18.0001 31.2045C20.3872 31.2045 22.6763 30.2565 24.364 28.5687C26.0518 26.8809 27.0001 24.5916 27.0001 22.2046V13.5647C27.0001 11.1777 26.0518 8.88859 24.364 7.20077C22.6762 5.51293 20.387 4.56466 18.0001 4.56466Z" fill="white"/>
<path fill-rule="evenodd" clip-rule="evenodd" d="M18.0002 8.16467C18.5966 8.16467 19.0802 8.64821 19.0802 9.24467V20.7646C19.0802 21.3611 18.5966 21.8446 18.0002 21.8446C17.4037 21.8446 16.9202 21.3611 16.9202 20.7646V9.24467C16.9202 8.64821 17.4037 8.16467 18.0002 8.16467Z" fill="white"/>
<path fill-rule="evenodd" clip-rule="evenodd" d="M12.9164 15.681C13.3382 15.2592 14.022 15.2592 14.4438 15.681L18.0001 19.2374L21.5565 15.681C21.9782 15.2592 22.6619 15.2592 23.0837 15.681C23.5055 16.1028 23.5055 16.7866 23.0837 17.2084L18.7637 21.5284C18.3419 21.9501 17.6582 21.9501 17.2365 21.5284L12.9164 17.2084C12.4947 16.7866 12.4947 16.1028 12.9164 15.681Z" fill="white"/>
</svg>
