<svg width="32" height="32" viewBox="0 0 32 32" fill="none" xmlns="http://www.w3.org/2000/svg">
<path fill-rule="evenodd" clip-rule="evenodd" d="M25.9204 5.06909C23.2883 2.44648 19.7878 1.00154 16.0586 1C8.37408 1 2.12003 7.22395 2.11694 14.8737C2.11591 17.3191 2.7578 19.7062 3.97787 21.8103L2 29L9.39066 27.0706C11.4271 28.1761 13.7197 28.7587 16.0529 28.7594H16.0587C23.7423 28.7594 29.9971 22.5349 30 14.8848C30.0015 11.1773 28.5527 7.69153 25.9204 5.06909ZM16.0586 26.4162H16.0537C13.9746 26.4153 11.9354 25.8592 10.156 24.8087L9.73307 24.5587L5.34734 25.7037L6.51796 21.4482L6.24235 21.0119C5.08238 19.1757 4.46985 17.0535 4.47088 14.8746C4.47329 8.51628 9.6716 3.34336 16.0632 3.34336C19.1583 3.34438 22.0677 4.54546 24.2554 6.72527C26.4432 8.90508 27.6473 11.8025 27.6462 14.884C27.6435 21.2427 22.4455 26.4162 16.0586 26.4162ZM22.4146 17.7792C22.0664 17.6055 20.3536 16.7671 20.0342 16.6512C19.7152 16.5355 19.4827 16.4779 19.2507 16.8249C19.0183 17.1718 18.3508 17.9528 18.1475 18.184C17.9442 18.4154 17.7412 18.4445 17.3928 18.2708C17.0444 18.0974 15.922 17.7311 14.5914 16.55C13.5559 15.6308 12.8568 14.4955 12.6535 14.1486C12.4505 13.8013 12.6518 13.6318 12.8063 13.4411C13.1834 12.975 13.5611 12.4864 13.6771 12.2552C13.7934 12.0238 13.7352 11.8213 13.6479 11.6478C13.5611 11.4744 12.8644 9.76794 12.5742 9.07358C12.2912 8.39785 12.0042 8.48911 11.7903 8.47852C11.5873 8.46843 11.355 8.46638 11.1226 8.46638C10.8905 8.46638 10.513 8.55303 10.1936 8.90029C9.8744 9.24739 8.97459 10.086 8.97459 11.7924C8.97459 13.4988 10.2228 15.1473 10.3969 15.3787C10.5711 15.6101 12.8534 19.1118 16.3477 20.6133C17.1789 20.9708 17.8276 21.184 18.3337 21.3438C19.1682 21.6076 19.9274 21.5704 20.5277 21.4812C21.1971 21.3815 22.5886 20.6424 22.8791 19.8327C23.1693 19.0228 23.1693 18.3288 23.0821 18.184C22.9952 18.0394 22.7629 17.9528 22.4146 17.7792Z" fill="white"/>
</svg>
